<svg id="Layer_1" data-name="Layer 1" xmlns="http://www.w3.org/2000/svg" viewBox="0 0 381.41 334.15"><defs><style>.cls-1{fill:#0078b9;}</style></defs><path class="cls-1" d="M1048-386.1H873.46c-11.36,0-15.84-4.41-15.84-15.58q0-14.51,0-29c0-10.72,4.84-15.6,15.48-15.6h350.07c11.2,0,15.75,4.54,15.76,15.69q0,14.75,0,29.5c0,10.22-4.71,15-14.9,15Q1136-386.07,1048-386.1Z" transform="translate(-857.56 446.31)"/><path class="cls-1" d="M1048.34-309.33h175c11.19,0,15.57,4.47,15.58,15.81,0,10,0,20,0,30,0,9.14-5,14.2-14.17,14.39-4.83.09-9.67,0-14.5,0h-336c-12.13,0-16.61-4.45-16.61-16.47q0-14.51,0-29c0-9.88,4.8-14.72,14.7-14.73q88,0,176,0Z" transform="translate(-857.56 446.31)"/><path class="cls-1" d="M1048.36-172.37h172c2,0,4,0,6,.05,7.48.27,12.51,5.24,12.57,12.66.1,11.33.07,22.66,0,34,0,7-3.9,11.58-10.78,12.87a41.22,41.22,0,0,1-7.44.63q-172.21,0-344.44,0a45.76,45.76,0,0,1-8.43-.79,12,12,0,0,1-10.16-11.81c-.12-11.67-.15-23.33,0-35,.11-7.85,5.54-12.58,14.23-12.59q78,0,156,0h20.49Z" transform="translate(-857.56 446.31)"/></svg>