<?xml version="1.0" encoding="utf-8"?>
<!-- Generator: Adobe Illustrator 25.4.1, SVG Export Plug-In . SVG Version: 6.00 Build 0)  -->
<svg version="1.1" id="Layer_1" xmlns="http://www.w3.org/2000/svg" xmlns:xlink="http://www.w3.org/1999/xlink" x="0px" y="0px"
	 viewBox="0 0 35.1 35.1" style="enable-background:new 0 0 35.1 35.1;" xml:space="preserve">
<style type="text/css">
	.st0{fill:#134A89;}
</style>
<path id="Search_icon" class="st0" d="M34.2,29.7l-6.6-6.6c4.5-6.9,2.5-16.2-4.4-20.7S6.9-0.1,2.4,6.8s-2.5,16.2,4.4,20.7
	c5,3.2,11.4,3.2,16.3,0l6.6,6.6c1.2,1.2,3.2,1.3,4.4,0.1S35.4,31.1,34.2,29.7C34.2,29.8,34.2,29.8,34.2,29.7z M3.5,15
	C3.5,8.7,8.7,3.5,15,3.5c6.3,0,11.5,5.1,11.5,11.4c0,2.6-0.9,5.1-2.5,7.1L22.1,24c-5,3.9-12.2,3.1-16.1-1.9
	C4.4,20.1,3.5,17.6,3.5,15L3.5,15z"/>
</svg>
