<?xml version="1.0" encoding="utf-8"?>
<!-- Generator: Adobe Illustrator 25.4.1, SVG Export Plug-In . SVG Version: 6.00 Build 0)  -->
<svg version="1.1" id="Layer_1" xmlns="http://www.w3.org/2000/svg" xmlns:xlink="http://www.w3.org/1999/xlink" x="0px" y="0px"
	 viewBox="0 0 54.2 54.2" style="enable-background:new 0 0 54.2 54.2;" xml:space="preserve">
<style type="text/css">
	.st0{fill:#0078B9;}
</style>
<path id="Path_138" class="st0" d="M27.1,0C12.1,0,0,12.1,0,27.1s12.1,27.1,27.1,27.1s27.1-12.1,27.1-27.1l0,0
	C54.2,12.1,42.1,0,27.1,0z M17.6,42.6c-2,0-4,0-5.9,0c-0.4,0-0.5-0.1-0.5-0.5c0-6.6,0-13.3,0-19.9c0-0.3,0.1-0.5,0.4-0.5
	c2,0,4,0,6,0c0.4,0,0.5,0.1,0.5,0.5c0,3.3,0,6.6,0,9.9c0,3.3,0,6.6,0,9.9C18.1,42.4,18.1,42.6,17.6,42.6L17.6,42.6z M18.5,16.2
	c-0.5,1.9-2.4,2.9-4.6,2.6c-2-0.3-3.3-2.1-3.1-4c0-0.3,0.1-0.6,0.2-0.9c0.6-1.4,2.1-2.3,3.7-2.2c2-0.2,3.7,1.3,3.9,3.3
	C18.6,15.4,18.6,15.8,18.5,16.2L18.5,16.2z M42.6,42.6c-2,0-3.9,0-5.9,0c-0.4,0-0.5-0.1-0.5-0.5c0-3.5,0-7,0-10.5
	c0-0.8-0.1-1.6-0.3-2.3c-0.5-1.8-2.3-2.9-4.1-2.4c-0.5,0.1-1,0.4-1.4,0.7c-1,0.8-1.6,2.1-1.5,3.4c0,3.3,0,6.6,0,9.9
	c0,0.4,0,0.9,0,1.3c0,0.4-0.1,0.4-0.5,0.4c-2,0-4,0-6,0c-0.4,0-0.5-0.1-0.5-0.5c0-3,0-5.9,0-8.9c0-3.7,0-7.3,0-11
	c0-0.4,0.1-0.5,0.5-0.5c2,0,4,0,6,0c0.4,0,0.5,0.1,0.4,0.5c0,0.8,0,1.5,0,2.4c0.1-0.1,0.2-0.2,0.2-0.2c1.8-2.7,4.4-3.4,7.5-3
	c3.5,0.5,5.8,3,6.3,6.8c0.1,0.9,0.2,1.8,0.2,2.7c0,3.7,0,7.5,0,11.2C43.1,42.4,43,42.6,42.6,42.6z"/>
</svg>
