<?xml version="1.0" encoding="utf-8"?>
<!-- Generator: Adobe Illustrator 25.4.1, SVG Export Plug-In . SVG Version: 6.00 Build 0)  -->
<svg version="1.1" id="Layer_1" xmlns="http://www.w3.org/2000/svg" xmlns:xlink="http://www.w3.org/1999/xlink" x="0px" y="0px"
	 viewBox="0 0 52.5 52.5" style="enable-background:new 0 0 52.5 52.5;" xml:space="preserve">
<style type="text/css">
	.st0{fill:#0078B9;}
</style>
<path id="Path_137" class="st0" d="M26.2,0C11.7,0,0,11.7,0,26.2s11.7,26.2,26.2,26.2s26.2-11.7,26.2-26.2C52.5,11.7,40.7,0,26.2,0
	L26.2,0z M38.7,19.9c0,0.3,0,0.6,0,0.8c0,8.5-6.5,18.2-18.2,18.2c-3.5,0-6.9-1-9.8-2.9c0.5,0.1,1,0.1,1.5,0.1c2.9,0,5.7-1,8-2.7
	c-2.7-0.1-5.2-1.8-6-4.5c1,0.2,2,0.1,2.9-0.1c-3-0.6-5.1-3.2-5.1-6.3c0,0,0-0.1,0-0.1c0.9,0.5,1.9,0.8,2.9,0.8
	c-2.8-1.9-3.7-5.6-2-8.6c3.3,4,8.1,6.4,13.2,6.7c-0.8-3.5,1.3-6.9,4.8-7.7c2.2-0.5,4.6,0.2,6.1,1.9c1.4-0.3,2.8-0.8,4.1-1.6
	c-0.5,1.5-1.5,2.7-2.8,3.5c1.3-0.2,2.5-0.5,3.7-1C41,17.8,39.9,19,38.7,19.9z"/>
</svg>
