<?xml version="1.0" encoding="utf-8"?>
<!-- Generator: Adobe Illustrator 25.4.1, SVG Export Plug-In . SVG Version: 6.00 Build 0)  -->
<svg version="1.1" id="Layer_1" xmlns="http://www.w3.org/2000/svg" xmlns:xlink="http://www.w3.org/1999/xlink" x="0px" y="0px"
	 viewBox="0 0 226.9 112.9" style="enable-background:new 0 0 226.9 112.9;" xml:space="preserve">
<style type="text/css">
	.st0{fill:none;stroke:#829EB5;stroke-width:0.95;stroke-miterlimit:10;}
	.st1{fill:#0064B1;}
</style>
<g id="logo" transform="translate(-134.855 -92.644)">
	<g id="Group_371" transform="translate(189.31 93.194)">
		<path id="Path_144" class="st0" d="M108.4,33.9c12,28.4-1.5,61.2-30.2,73.4S16.4,106.4,4.4,78S5.9,16.8,34.6,4.6
			C63.3-7.6,96.4,5.5,108.4,33.9z"/>
		<path id="Path_145" class="st0" d="M51.1,6.9c0,0-23.5,61.2-0.1,104.5"/>
		<path id="Path_146" class="st0" d="M56.8,7.4c0,0,0.3,103.4,0,104.4"/>
		<path id="Path_147" class="st0" d="M47.6,6.1c0,0-40.9,56.7-5.5,104"/>
		<path id="Path_148" class="st0" d="M45.9,5.5c0,0-59.7,45.2-9.8,102.7"/>
		<path id="Path_149" class="st0" d="M43.8,4.4c0,0-70.2,40.4-15,100.6"/>
		<path id="Path_150" class="st0" d="M17.1,96.3C-25.7,30,44.2,2,44.2,2"/>
		<path id="Path_151" class="st0" d="M66.4,6.2c0,0,38.7,57.6,1.3,104.3"/>
		<path id="Path_152" class="st0" d="M68.3,5.6c0,0,57.8,46.5,5.4,103.3"/>
		<path id="Path_153" class="st0" d="M70.3,4.5c0,0,68.7,42.1,10.9,101.4"/>
		<path id="Path_154" class="st0" d="M69.1,1.7c0,0,69.9,29.9,24,96.4"/>
		<path id="Path_155" class="st0" d="M31.5,6.4c0,0-2.1,3.8,2.5,6.7c0.8,0.5,1.6,0.9,2.4,1.2c0.6,0.2,1.3,0.5,1.9,0.7
			c6.6,1.9,13.8,1.8,20.9,1.9c1,0,2.1-0.1,3.1-0.1c6.8-1,15.3-0.8,20.3-6.3c0.4-0.5,0.6-1.1,0.8-1.7c0.2-0.6,0.2-1.3,0.1-2"/>
		<path id="Path_156" class="st0" d="M18.3,14.6c0,0,0.4,4.6,12.5,8.8c1.3,0.4,2.7,0.8,4.1,1.1c2.9,0.7,5.9,1.2,8.8,1.5
			c1,0.1,2,0.2,3,0.3c6.6,0.4,13.3,1.1,20.2,0.6c1-0.1,1.9-0.1,2.9-0.2c6.6-0.3,13.2-1.7,19.4-4c0.9-0.4,1.9-0.9,2.7-1.4
			c2.1-1.1,3.7-3,4.7-5.1"/>
		<path id="Path_157" class="st0" d="M8.5,27.2c0,0-0.4,7.4,30.1,12.1c0.7,0.1,1.5,0.2,2.3,0.3c6.1,0.8,12.2,1.1,18.4,1.1
			c2.1-0.1,4.1-0.2,6.2-0.4c4.7-0.4,9.4-1.5,14-2.1c2-0.4,4.1-0.8,6.1-1.4c8.2-2.1,15.4-5.3,19.5-9.8"/>
		<path id="Path_158" class="st0" d="M2.5,40c0,0,0.6,8.2,29.6,13c0.9,0.1,1.8,0.2,2.7,0.3c7.9,1.1,16,1.6,24,1.3c1,0,2,0,3.1-0.1
			s2.1,0,3.1-0.1c1.1,0,2.1-0.1,3.2-0.1s2.1-0.1,3.2-0.2c1-0.1,1.9-0.1,2.9-0.2c3.9-0.2,7.7-0.7,11.5-1.5c1-0.2,1.9-0.4,2.9-0.5
			c1-0.2,1.9-0.4,2.9-0.6c2.6-0.6,5.2-1.4,7.7-2.3c4.9-1.8,9.1-4.2,11.9-7.4"/>
		<path id="Path_159" class="st0" d="M0.1,52.7c0,0,4.2,8.1,29.5,13.2c0.8,0.2,1.5,0.3,2.3,0.4c6.5,1.1,13,1.9,19.6,2.2
			c0.9,0.1,1.9,0.1,2.8,0.1c8.7,0.5,17.3,0.2,25.9-1.1c0.9-0.1,1.9-0.3,2.8-0.5c4.7-0.8,9.3-1.9,13.8-3.4c1.1-0.4,2.1-0.8,3.2-1.2
			c4.5-1.9,8.8-4.3,12.7-7.1"/>
		<path id="Path_160" class="st0" d="M1.3,68.8c0,0,10.1,10.8,49.5,12.8c0.8,0,1.5,0.1,2.3,0.1c4.5,0.3,9,0.5,13.6,0.4
			c0.9,0,1.8-0.1,2.7-0.1c8.6-0.4,17.2-1.9,25.5-4.3c0.9-0.3,1.8-0.6,2.7-0.9c4.6-1.6,9-3.9,13.1-6.7"/>
		<path id="Path_161" class="st0" d="M6,81.4c0,0,7.8,8.1,40,11.5c1.5,0.1,3,0.3,4.5,0.4c5.1,0.5,10.2,0.6,15.3,0.1
			c1-0.1,2-0.2,3-0.3c9.6-0.7,19.5-2.4,28.4-6.3c0.8-0.3,1.6-0.6,2.3-1c1.5-0.7,4.4-2,5.8-2.8"/>
		<path id="Path_162" class="st0" d="M14.4,91.8c0,0,10.8,10,40.7,10.6c0,0,0.5,0,1.3,0.1c5.3-0.1,10.7-0.5,16-1.2
			c0.6-0.1,1.3-0.2,1.9-0.3s1.3-0.2,2-0.4c6.3-1.4,12.9-2.9,18.7-6c0.9-0.4,2.4-1.1,3.4-1.6"/>
		<path id="Path_163" class="st0" d="M70.7,3.7c0,2-6.2,3.6-13.8,3.5S43.3,5.4,43.3,3.4c0-2,6.2-3.6,13.8-3.5S70.7,1.7,70.7,3.7z"/>
		<path id="Path_164" class="st0" d="M62.7,7.1c0,0,23.5,61.2,0.1,104.5"/>
	</g>
	<g id="Group_372" transform="translate(188.658 93.194)">
		<path id="Path_165" class="st0" d="M108.4,33.9c12,28.4-1.5,61.2-30.2,73.4S16.4,106.4,4.4,78S5.9,16.8,34.6,4.6
			C63.3-7.6,96.4,5.5,108.4,33.9z"/>
		<path id="Path_166" class="st0" d="M51.1,6.9c0,0-23.5,61.2-0.1,104.5"/>
		<path id="Path_167" class="st0" d="M56.8,7.4c0,0,0.3,103.4,0,104.4"/>
		<path id="Path_168" class="st0" d="M47.6,6.1c0,0-40.9,56.7-5.5,104"/>
		<path id="Path_169" class="st0" d="M45.9,5.5c0,0-59.7,45.2-9.8,102.7"/>
		<path id="Path_170" class="st0" d="M43.8,4.4c0,0-70.2,40.4-15,100.6"/>
		<path id="Path_171" class="st0" d="M17.1,96.3C-25.7,30,44.2,2,44.2,2"/>
		<path id="Path_172" class="st0" d="M66.4,6.2c0,0,38.7,57.6,1.3,104.3"/>
		<path id="Path_173" class="st0" d="M68.3,5.6c0,0,57.8,46.5,5.4,103.3"/>
		<path id="Path_174" class="st0" d="M70.3,4.5c0,0,68.7,42.1,10.9,101.4"/>
		<path id="Path_175" class="st0" d="M69.1,1.7c0,0,69.9,29.9,24,96.4"/>
		<path id="Path_176" class="st0" d="M31.5,6.4c0,0-2.1,3.8,2.5,6.7c0.8,0.5,1.6,0.9,2.4,1.2c0.6,0.2,1.3,0.5,1.9,0.7
			c6.6,1.9,13.8,1.8,20.9,1.9c1,0,2.1-0.1,3.1-0.1c6.8-1,15.3-0.8,20.3-6.3c0.4-0.5,0.6-1.1,0.8-1.7c0.2-0.6,0.2-1.3,0.1-2"/>
		<path id="Path_177" class="st0" d="M18.3,14.6c0,0,0.4,4.6,12.5,8.8c1.3,0.4,2.7,0.8,4.1,1.1c2.9,0.7,5.9,1.2,8.8,1.5
			c1,0.1,2,0.2,3,0.3c6.6,0.4,13.3,1.1,20.2,0.6c1-0.1,1.9-0.1,2.9-0.2c6.6-0.3,13.2-1.7,19.4-4c0.9-0.4,1.9-0.9,2.7-1.4
			c2.1-1.1,3.7-3,4.7-5.1"/>
		<path id="Path_178" class="st0" d="M8.5,27.2c0,0-0.4,7.4,30.1,12.1c0.7,0.1,1.5,0.2,2.3,0.3c6.1,0.8,12.2,1.1,18.4,1.1
			c2.1-0.1,4.1-0.2,6.2-0.4c4.7-0.4,9.4-1.5,14-2.1c2-0.4,4.1-0.8,6.1-1.4c8.2-2.1,15.4-5.3,19.5-9.8"/>
		<path id="Path_179" class="st0" d="M2.5,40c0,0,0.6,8.2,29.6,13c0.9,0.1,1.8,0.2,2.7,0.3c7.9,1.1,16,1.6,24,1.3c1,0,2,0,3.1-0.1
			s2.1,0,3.1-0.1c1.1,0,2.1-0.1,3.2-0.1s2.1-0.1,3.2-0.2c1-0.1,1.9-0.1,2.9-0.2c3.9-0.2,7.7-0.7,11.5-1.5c1-0.2,1.9-0.4,2.9-0.5
			c1-0.2,1.9-0.4,2.9-0.6c2.6-0.6,5.2-1.4,7.7-2.3c4.9-1.8,9.1-4.2,11.9-7.4"/>
		<path id="Path_180" class="st0" d="M0.1,52.7c0,0,4.2,8.1,29.5,13.2c0.8,0.2,1.5,0.3,2.3,0.4c6.5,1.1,13,1.9,19.6,2.2
			c0.9,0.1,1.9,0.1,2.8,0.1c8.7,0.5,17.3,0.2,25.9-1.1c0.9-0.1,1.9-0.3,2.8-0.5c4.7-0.8,9.3-1.9,13.8-3.4c1.1-0.4,2.1-0.8,3.2-1.2
			c4.5-1.9,8.8-4.3,12.7-7.1"/>
		<path id="Path_181" class="st0" d="M1.3,68.8c0,0,10.1,10.8,49.5,12.8c0.8,0,1.5,0.1,2.3,0.1c4.5,0.3,9,0.5,13.6,0.4
			c0.9,0,1.8-0.1,2.7-0.1c8.6-0.4,17.2-1.9,25.5-4.3c0.9-0.3,1.8-0.6,2.7-0.9c4.6-1.6,9-3.9,13.1-6.7"/>
		<path id="Path_182" class="st0" d="M6,81.4c0,0,7.8,8.1,40,11.5c1.5,0.1,3,0.3,4.5,0.4c5.1,0.5,10.2,0.6,15.3,0.1
			c1-0.1,2-0.2,3-0.3c9.6-0.7,19.5-2.4,28.4-6.3c0.8-0.3,1.6-0.6,2.3-1c1.5-0.7,4.4-2,5.8-2.8"/>
		<path id="Path_183" class="st0" d="M14.4,91.8c0,0,10.8,10,40.7,10.6c0,0,0.5,0,1.3,0.1c5.3-0.1,10.7-0.5,16-1.2
			c0.6-0.1,1.3-0.2,1.9-0.3s1.3-0.2,2-0.4c6.3-1.4,12.9-2.9,18.7-6c0.9-0.4,2.4-1.1,3.4-1.6"/>
		<path id="Path_184" class="st0" d="M70.7,3.7c0,2-6.2,3.6-13.7,3.5S43.3,5.4,43.3,3.4c0-2,6.2-3.6,13.8-3.5S70.7,1.7,70.7,3.7z"/>
		<path id="Path_185" class="st0" d="M62.7,7.1c0,0,23.5,61.2,0.1,104.5"/>
	</g>
	<g id="Group_377" transform="translate(134.855 100.6)">
		<g id="Group_374" transform="translate(21.379 49.218)">
			<g id="Group_373">
				<path id="Path_186" class="st1" d="M34.7,30.3c0-4.8-0.3-5.4-2.7-6.1c-0.7-0.1-1.3-0.2-2-0.2c-0.2,0-0.5-0.1-0.5-0.4
					c0-0.4,0.3-0.5,0.9-0.5c2.7,0,6.4,0.2,6.7,0.2s4-0.2,5.8-0.2c0.6,0,0.9,0.1,0.9,0.5c0,0.2-0.2,0.4-0.5,0.4c-0.5,0-1,0.1-1.5,0.2
					c-1.6,0.3-2.1,1.3-2.2,3.4c-0.1,1.9-0.1,3.7-0.1,6.1v6.6c0,2.7-0.1,2.8-0.8,3.2c-3.8,2-9.1,2.7-12.5,2.7
					c-4.5,0-12.9-0.6-19.4-6.3C3.4,36.7,0,30.4,0,23C0,13.6,4.6,6.9,9.8,3.6C15.2,0.3,21-0.1,25.5-0.1c3,0.1,6.1,0.4,9,1
					c1.6,0.3,3.2,0.5,4.8,0.6C39.9,1.6,40,1.8,40,2c-0.3,2.8-0.4,5.6-0.4,8.4c0,0.9-0.1,1.2-0.5,1.2c-0.3,0-0.4-0.4-0.4-0.9
					c-0.1-1.4-0.5-2.7-1.2-3.9C36,4.6,31.2,2.1,23.6,2.1C19.9,2.1,15.4,2.5,11,6c-3.4,2.7-5.8,8.1-5.8,15c0,6,2.2,11.9,6.3,16.3
					c4.1,4.1,9.7,6.4,15.4,6.3c2.1,0,5.2-0.4,6.7-1.2c0.8-0.4,1.2-1.2,1.2-2.1L34.7,30.3z"/>
				<path id="Path_187" class="st1" d="M47.3,21.9c0-7.8,0-9.2-0.1-10.8c-0.1-1.7-0.4-2.5-2.1-2.8c-0.6-0.1-1.2-0.1-1.8-0.1
					c-0.2,0-0.4-0.2-0.4-0.4c0-0.3,0.2-0.4,0.8-0.4c2.4,0,5.8,0.1,6.1,0.1c0.5,0,4.9-0.1,6.5-0.1c3.3,0,7,0.3,9.7,2.2
					c2.2,1.6,3.5,4.1,3.6,6.8c0,3.7-1.5,7.3-6.4,11.4c4.2,5.3,7.8,9.8,10.8,13c2.8,2.8,4.5,3.3,5.8,3.5c0.6,0.1,1.2,0.2,1.8,0.2
					c0.2,0,0.4,0.2,0.5,0.4c0,0.3-0.3,0.4-1.2,0.4h-3.2c-2.9,0-4.2-0.3-5.5-1c-2.2-1.2-4.1-3.6-7.1-7.4c-2.2-2.7-4.5-6-5.6-7.3
					c-0.2-0.2-0.4-0.3-0.7-0.3l-6.6-0.1c-0.2,0-0.4,0.1-0.4,0.4v1.2c0,4.8,0,8.7,0.2,10.8c0.2,1.5,0.5,2.4,2.1,2.7
					c0.8,0.1,1.5,0.2,2.3,0.2c0.2,0,0.4,0.1,0.4,0.3c0,0,0,0.1,0,0.1c0,0.2-0.2,0.4-0.8,0.4c-2.8,0-6.1-0.2-6.4-0.2
					c-0.1,0-3.5,0.2-5.1,0.2c-0.5,0-0.8-0.1-0.8-0.4c0-0.2,0.2-0.4,0.4-0.4c0,0,0,0,0,0c0.5,0,1.1-0.1,1.6-0.2
					c1-0.2,1.1-1.2,1.4-2.7c0.3-3.6,0.4-7.2,0.3-10.9L47.3,21.9z M51.8,26.2c0,0.3,0.1,0.5,0.4,0.6c1.9,0.6,3.8,0.8,5.7,0.8
					c1.4,0.1,2.7-0.2,3.9-0.9c1.8-1.2,3.1-3.8,3.1-7.7c0-6.2-3.4-9.8-9-9.8c-1.2,0-2.5,0.1-3.7,0.3c-0.2,0.1-0.4,0.3-0.4,0.6
					L51.8,26.2z"/>
				<path id="Path_188" class="st1" d="M95.1,6.7c11.7,0,20.5,7.1,20.5,18.8c0,11.2-8.3,20.5-20.8,20.5c-14.2,0-20.3-10.7-20.3-19.7
					C74.5,18.2,80.8,6.7,95.1,6.7z M96.3,43.9c4.7,0,14-2.5,14-17c0-12-7.3-18.3-15.5-18.3c-8.7,0-14.9,5.4-14.9,16.3
					C79.9,36.6,86.9,43.9,96.3,43.9L96.3,43.9z"/>
				<path id="Path_189" class="st1" d="M120.7,21.9c0-7.8,0-9.2-0.1-10.8s-0.4-2.5-2.1-2.8c-0.6-0.1-1.2-0.1-1.8-0.1
					c-0.2,0-0.4-0.2-0.4-0.4c0-0.3,0.2-0.4,0.8-0.4c2.4,0,5.5,0.1,6,0.1s3.7-0.1,5.2-0.1c0.6,0,0.9,0.1,0.9,0.4
					c0,0.2-0.2,0.4-0.5,0.4c-0.4,0-0.9,0-1.3,0.1c-1.4,0.2-1.7,1.1-1.8,2.8c-0.1,1.6-0.1,3-0.1,10.8v7c0,7.3,1.6,10.3,3.8,12.3
					c2.5,2.3,4.8,2.7,7.7,2.7c3.1,0,6-1.3,8-3.5c2.4-2.9,2.9-7,2.9-12.1v-6.3c0-7.8-0.1-9.2-0.1-10.8s-0.4-2.5-2.1-2.8
					c-0.6-0.1-1.2-0.1-1.8-0.1c-0.2,0-0.4-0.2-0.4-0.4c0-0.3,0.2-0.4,0.8-0.4c2.3,0,5.3,0.1,5.6,0.1c0.4,0,2.8-0.1,4.4-0.1
					c0.6,0,0.8,0.1,0.8,0.4c0,0.2-0.2,0.4-0.4,0.4c-0.4,0-0.9,0-1.3,0.1c-1.4,0.3-1.7,1.1-1.8,2.8c-0.1,1.6-0.1,3-0.1,10.8v5.4
					c0,5.4-0.7,11.5-4.8,15c-3,2.5-6.9,3.8-10.9,3.7c-1.7,0-7.1-0.1-10.8-3.5c-2.5-2.4-4.5-5.8-4.5-13.1L120.7,21.9z"/>
				<path id="Path_190" class="st1" d="M160.6,21.9c0-7.8,0-9.2-0.1-10.8c-0.1-1.7-0.4-2.5-2.1-2.8c-0.6-0.1-1.2-0.1-1.8-0.1
					c-0.2,0-0.4-0.2-0.4-0.4c0-0.3,0.2-0.4,0.8-0.4c2.4,0,5.6,0.1,6,0.1c1.1,0,5-0.1,7.4-0.1c6.7,0,9,2.1,9.9,2.8
					c1.6,1.6,2.6,3.7,2.6,6c0,7.2-5.4,12-13.4,12c-0.5,0-1,0-1.5-0.1c-0.3,0-0.5-0.2-0.5-0.5c0-0.4,0.3-0.5,1.4-0.5
					c5.6,0,9.6-3.5,9.6-8.1c0.1-2.8-0.9-5.6-2.9-7.6c-1.9-1.8-4.4-2.7-7-2.4c-1,0-1.9,0.2-2.9,0.4c-0.3,0.1-0.4,0.4-0.4,0.9v20.4
					c0,4.8,0,8.8,0.2,10.9c0.2,1.5,0.5,2.4,2.1,2.7c0.8,0.1,1.5,0.2,2.3,0.2c0.2,0,0.4,0.2,0.4,0.4c0,0,0,0,0,0
					c0,0.2-0.2,0.4-0.8,0.4c-2.8,0-6.2-0.2-6.5-0.2c-0.2,0-3.5,0.2-5.1,0.2c-0.5,0-0.8-0.1-0.8-0.4c0-0.2,0.2-0.4,0.4-0.4
					c0,0,0,0,0,0c0.5,0,1.1-0.1,1.6-0.2c1-0.2,1.1-1.2,1.4-2.7c0.3-3.6,0.4-7.2,0.3-10.9L160.6,21.9z"/>
			</g>
		</g>
		<g id="Group_376">
			<g id="Group_375">
				<path id="Path_191" class="st1" d="M5.1,17.5c0-9.2,0-10.8-0.1-12.7c-0.1-2-0.6-2.9-2.5-3.4c-0.7-0.1-1.3-0.2-2-0.2
					C0.2,1.2,0,1.1,0,0.9c0-0.4,0.3-0.5,0.9-0.5c1.4,0,2.9,0,4.2,0.1l2.4,0.1c0.4,0,12.1,0,13.5-0.1c0.9,0,1.7-0.1,2.5-0.3
					c0.3-0.1,0.5-0.3,0.8-0.3c0.2,0,0.2,0.2,0.2,0.5c0,0.4-0.3,1.1-0.5,2.8c-0.1,0.6-0.2,3.2-0.3,3.9c-0.1,0.3-0.2,0.6-0.4,0.6
					C23.2,7.8,23,7.5,23,7c0-0.7-0.1-1.4-0.4-2.1c-0.4-0.9-1-1.7-4.2-2c-1-0.1-7.4-0.2-8.1-0.2c-0.2,0-0.4,0.2-0.4,0.6v16.3
					c0,0.4,0.1,0.6,0.4,0.6c0.8,0,8,0,9.4-0.1c1.4-0.1,2.2-0.2,2.8-0.8c0.4-0.5,0.6-0.8,0.9-0.8c0.2,0,0.3,0.1,0.3,0.5
					s-0.3,1.4-0.5,3.3c-0.1,1.2-0.2,3.4-0.2,3.8c0,0.5,0,1.1-0.4,1.1c-0.3,0-0.4-0.2-0.4-0.5c0-0.7-0.1-1.3-0.2-1.9
					c-0.2-0.8-0.8-1.8-3.1-2.1c-1.6-0.2-7.4-0.3-8.4-0.3c-0.2,0-0.4,0.1-0.4,0.3c0,0,0,0.1,0,0.1v5.2c0,2-0.1,8.8,0,10.1
					c0.2,4.1,1.1,4.8,6.8,4.8c1.5,0,4.1,0,5.7-0.6s2.2-1.8,2.7-4.2c0.1-0.6,0.2-0.9,0.5-0.9c0.4,0,0.4,0.5,0.4,0.9
					c-0.2,1.9-0.4,3.8-0.8,5.7c-0.4,1.5-0.9,1.5-3.2,1.5c-4.4,0-7.7-0.1-10-0.2c-2.3-0.1-3.7-0.2-4.6-0.2c-0.1,0-1.1,0-2.4,0.1
					c-1.2,0-2.5,0.1-3.4,0.1c-0.6,0-0.9-0.1-0.9-0.5c0-0.2,0.1-0.4,0.5-0.4c0.6,0,1.2-0.1,1.8-0.2c1.2-0.2,1.5-1.5,1.7-3.2
					c0.3-2.5,0.3-7.1,0.3-12.8L5.1,17.5z"/>
				<path id="Path_192" class="st1" d="M58.3,32.2c0-4.1-0.1-4.7-2.2-5.1C55.4,27,54.8,27,54.2,27c-0.2,0-0.4-0.2-0.4-0.4
					c0-0.4,0.2-0.4,0.8-0.4c2.4,0,5.8,0.1,6.1,0.1c0.2,0,3.5-0.1,5.1-0.1c0.6,0,0.8,0.1,0.8,0.4c0,0.2-0.2,0.4-0.4,0.4
					c-0.4,0-0.9,0-1.3,0.1c-1.4,0.2-1.8,1-1.9,2.8C63,31.5,63,32.9,63,35.1v5.6c0,2.3-0.1,2.4-0.7,2.7c-3.3,1.7-8,2.2-11,2.2
					c-3.9,0-11.3-0.5-17.1-5.4c-4-3.7-6.2-8.9-6.2-14.3c0-8,4.1-13.7,8.7-16.5c4.7-2.8,9.8-3.2,13.8-3.2c2.7,0,5.3,0.3,8,0.8
					c1.4,0.3,2.8,0.5,4.2,0.5c0.5,0,0.6,0.2,0.6,0.5c0,0.7-0.3,2.1-0.3,7.1c0,0.8-0.2,1.1-0.6,1.1C62,16.3,62,16,62,15.6
					c-0.1-1.2-0.5-2.3-1.2-3.3c-1.3-1.9-5.2-3.9-12-3.9c-3.1,0-6.9,0.2-10.9,3.2c-3,2.3-5.1,6.8-5.1,12.6c0,5.2,1.9,10.1,5.5,13.9
					c3.5,3.5,8.3,5.3,13.3,5.2c1.8,0,4.2-0.2,5.6-0.9c0.6-0.4,1.1-0.6,1.1-1.5L58.3,32.2z"/>
				<path id="Path_193" class="st1" d="M110.1,38.5c0.2,1.8,0.5,4.5,2.7,5.2c1.1,0.3,2.2,0.5,3.4,0.5c0.2,0,0.4,0.1,0.4,0.4
					c0,0.3-0.5,0.5-1.1,0.5c-1.2,0-7-0.1-8.8-0.3c-1.2-0.1-1.5-0.3-1.5-0.5c0-0.2,0.2-0.4,0.4-0.4c0.3-0.1,0.4-0.8,0.2-1.8
					l-2.5-25.4h-0.1L90.6,42.2c-1.1,2.2-1.4,2.7-1.8,2.7S88,44.4,87,42.6c-1.4-2.5-4.8-8.9-6.1-11.6c-1.5-3.2-5.7-11.6-6.6-13.7
					h-0.2l-2,22.6c-0.1,0.8-0.1,1.7-0.1,2.5c0,0.7,0.5,1.3,1.2,1.4c0.7,0.2,1.3,0.3,2,0.3c0.2,0,0.4,0.2,0.4,0.4
					c0,0.4-0.4,0.5-0.9,0.5c-1.9,0-4.4-0.2-4.8-0.2c-0.5,0-2.9,0.2-4.4,0.2c-0.5,0-0.9-0.1-0.9-0.5c0-0.2,0.2-0.4,0.5-0.4
					c0.5,0,1-0.1,1.5-0.2c1.7-0.3,1.8-2.1,2-4l3.8-32.7c0.1-0.5,0.3-0.9,0.6-0.9c0.5,0,0.9,0.3,1.1,0.8l15.7,31.1L105,7.2
					c0.2-0.5,0.5-0.8,0.8-0.8s0.6,0.4,0.8,1.4L110.1,38.5z"/>
				<path id="Path_194" class="st1" d="M133,6.4c11.7,0,20.5,7.1,20.5,18.8c0,11.2-8.3,20.5-20.8,20.5c-14.2,0-20.3-10.7-20.3-19.7
					C112.4,17.9,118.7,6.4,133,6.4z M134.2,43.6c4.7,0,14-2.5,14-17c0-12-7.3-18.3-15.5-18.3c-8.7,0-14.9,5.4-14.9,16.3
					C117.8,36.2,124.8,43.6,134.2,43.6L134.2,43.6z"/>
				<path id="Path_195" class="st1" d="M160.7,38.1c0.1,4.1,0.6,5.4,2,5.7c0.9,0.2,1.7,0.3,2.6,0.3c0.2,0,0.4,0.2,0.4,0.4
					c0,0,0,0,0,0c0,0.3-0.4,0.4-0.9,0.4c-2.9,0-5-0.2-5.5-0.2s-2.7,0.2-5,0.2c-0.5,0-0.8-0.1-0.8-0.4c0-0.2,0.2-0.4,0.4-0.4
					c0,0,0,0,0,0c0.7,0,1.4-0.1,2.1-0.3c1.3-0.4,1.5-1.7,1.5-6.2V8.9c0-2,0.3-2.5,0.7-2.5c0.6,0,1.5,1,2,1.5
					c0.8,0.8,8.4,8.8,16.4,17.1c5.1,5.3,10.7,11.3,12.3,12.9l-0.5-25.1c-0.1-3.2-0.4-4.4-1.9-4.7c-0.8-0.1-1.7-0.2-2.5-0.2
					c-0.4,0-0.4-0.3-0.4-0.5c0-0.3,0.4-0.4,1-0.4c2.4,0,4.8,0.1,5.4,0.1s2.3-0.1,4.4-0.1c0.5,0,0.9,0.1,0.9,0.4
					c-0.1,0.3-0.3,0.5-0.6,0.5c-0.4,0-0.8,0-1.2,0.1c-1.7,0.4-1.8,1.4-1.8,4.4l-0.1,29.4c0,3.3-0.1,3.6-0.4,3.6
					c-0.5,0-1.1-0.4-4-3.1c-0.5-0.5-8-7.8-13.5-13.6c-6-6.3-11.9-12.4-13.4-14.2L160.7,38.1z"/>
				<path id="Path_196" class="st1" d="M213.1,30.4c0,4.8,0,8.8,0.2,10.9c0.2,1.5,0.4,2.4,2,2.7c0.8,0.1,1.6,0.2,2.4,0.2
					c0.2,0,0.4,0.1,0.4,0.3c0,0,0,0.1,0,0.1c0,0.2-0.2,0.4-0.8,0.4c-2.8,0-6.1-0.2-6.4-0.2c-0.2,0-3.8,0.2-5.4,0.2
					c-0.6,0-0.8-0.1-0.8-0.4c0-0.2,0.1-0.4,0.4-0.4c0.5,0,1-0.1,1.5-0.2c1.1-0.2,1.4-1.2,1.5-2.7c0.2-2.1,0.2-6,0.2-10.9V9.4
					l-7.5,0.1c-3.2,0.1-4.5,0.4-5.2,1.6c-0.3,0.5-0.6,1-0.8,1.6c-0.1,0.4-0.3,0.5-0.5,0.5c-0.2,0-0.4-0.2-0.4-0.4
					c0-0.5,1.1-5,1.1-5.4c0.1-0.3,0.4-0.9,0.5-0.9c0.8,0.2,1.5,0.4,2.3,0.6c1.5,0.2,3.5,0.2,4.1,0.2h19.6c1.2,0,2.5-0.1,3.7-0.2
					c0.8-0.1,1.2-0.2,1.5-0.2s0.2,0.3,0.2,0.6c0,1.5-0.2,5.1-0.2,5.7c0,0.4-0.2,0.6-0.5,0.6s-0.4-0.2-0.4-0.9l-0.1-0.5
					c-0.2-1.5-1.3-2.7-6.2-2.8l-6.5-0.1L213.1,30.4z"/>
			</g>
		</g>
	</g>
</g>
</svg>
