<?xml version="1.0" encoding="utf-8"?>
<!-- Generator: Adobe Illustrator 25.4.1, SVG Export Plug-In . SVG Version: 6.00 Build 0)  -->
<svg version="1.1" id="Layer_1" xmlns="http://www.w3.org/2000/svg" xmlns:xlink="http://www.w3.org/1999/xlink" x="0px" y="0px"
	 viewBox="0 0 233 66" style="enable-background:new 0 0 233 66;" xml:space="preserve">
<style type="text/css">
	.st0{fill:#006CAD;}
	.st1{fill:#7FB12C;}
</style>
<g id="Group_564" transform="translate(12436.5 -2664.011)">
	<path id="Path_1868" class="st0" d="M-12436.5,2689.1v-25h25L-12436.5,2689.1z M-12435.6,2665v22l22-22H-12435.6z"/>
	<path id="Path_1869" class="st0" d="M-12409.8,2691h-25l25-25V2691z M-12432.7,2690.1h22v-22L-12432.7,2690.1z"/>
	<path id="Path_1870" class="st0" d="M-12380.5,2689.1l-25-25h25V2689.1z M-12403.4,2665l22,22v-22H-12403.4z"/>
	<path id="Path_1871" class="st0" d="M-12382.1,2691h-25v-25L-12382.1,2691z M-12406.3,2690.1h22l-22-22V2690.1z"/>
	<path id="Path_1872" class="st1" d="M-12409.8,2719.6l-0.6-0.3c-11.3-4.8-20.3-13.8-25.4-25l-0.3-0.6h26.2V2719.6z
		 M-12434.7,2694.6c4.9,10.5,13.4,18.9,24,23.6v-23.6H-12434.7z"/>
	<path id="Path_1873" class="st0" d="M-12407.2,2719.6v-25.9h26.2l-0.3,0.6c-5,11.2-14.1,20.1-25.4,25L-12407.2,2719.6z
		 M-12406.3,2694.6v23.6c10.6-4.7,19.1-13.1,24-23.6H-12406.3z"/>
	<path id="Path_1874" class="st0" d="M-12365.8,2675.3c0-5.8,0-6.8-0.1-8c-0.1-1.3-0.4-1.9-1.6-2.1c-0.4-0.1-0.8-0.1-1.3-0.1
		c-0.2,0-0.3-0.1-0.3-0.2c0-0.2,0.2-0.3,0.6-0.3c0.9,0,1.9,0,2.7,0l1.5,0.1c0.3,0,7.7,0,8.6,0c0.5,0,1.1-0.1,1.6-0.2
		c0.2,0,0.3-0.2,0.5-0.2c0.1,0,0.1,0.1,0.1,0.3c0,0.3-0.2,0.7-0.3,1.7c0,0.4-0.1,2-0.2,2.4c0,0.2-0.1,0.4-0.3,0.4
		c-0.2,0-0.3-0.2-0.3-0.5c0-0.5-0.1-0.9-0.2-1.3c-0.3-0.6-0.6-1-2.7-1.3c-0.6-0.1-4.7-0.1-5.1-0.1c-0.2,0-0.2,0.1-0.2,0.4v10.2
		c0,0.3,0,0.4,0.2,0.4c0.5,0,5.1,0,6-0.1c0.9-0.1,1.4-0.1,1.8-0.5c0.3-0.3,0.4-0.5,0.6-0.5c0.1,0,0.2,0.1,0.2,0.3s-0.2,0.9-0.3,2.1
		c-0.1,0.7-0.2,2.1-0.2,2.4c0,0.3,0,0.7-0.3,0.7c-0.2,0-0.3-0.1-0.3-0.3c0-0.4,0-0.8-0.2-1.2c-0.1-0.5-0.5-1.1-1.9-1.3
		c-1-0.1-4.7-0.2-5.4-0.2c-0.1,0-0.2,0.1-0.3,0.2c0,0,0,0,0,0.1v3.3c0,1.3,0,5.6,0,6.3c0.1,2.6,0.7,3,4.3,3c1.2,0.1,2.4-0.1,3.6-0.4
		c1-0.4,1.4-1.1,1.7-2.7c0.1-0.4,0.1-0.6,0.3-0.6c0.2,0,0.2,0.3,0.2,0.6c-0.1,1.2-0.3,2.4-0.5,3.6c-0.3,1-0.6,1-2,1
		c-2.8,0-4.9-0.1-6.3-0.1c-1.5-0.1-2.4-0.1-2.9-0.1c-0.1,0-0.7,0-1.5,0c-0.7,0-1.6,0.1-2.2,0.1c-0.4,0-0.6-0.1-0.6-0.3
		c0-0.1,0.1-0.2,0.3-0.2c0.4,0,0.8-0.1,1.1-0.1c0.7-0.1,0.9-1,1.1-2c0.2-1.6,0.2-4.5,0.2-8V2675.3z"/>
	<path id="Path_1875" class="st0" d="M-12343.4,2689.1c-3-2.8-4.7-6.8-4.5-11c0-3.8,1.5-7.4,4.2-10.1c2.2-2.2,5.7-4,11.4-4
		c1.8,0,3.6,0.1,5.4,0.4c1.3,0.3,2.5,0.4,3.8,0.6c0.4,0,0.5,0.2,0.5,0.4c0,0.3-0.1,0.7-0.2,2.1c-0.1,1.2-0.1,3.3-0.1,3.8
		c0,0.6-0.1,0.8-0.3,0.8c-0.3,0-0.3-0.3-0.3-0.8c0-1.4-0.5-2.8-1.6-3.8c-1.3-1.1-4.2-2.1-7.5-2.1c-5,0-7.3,1.4-8.6,2.7
		c-2.7,2.6-3.4,5.9-3.4,9.7c-0.1,7.4,5.9,13.5,13.3,13.6c0.1,0,0.1,0,0.2,0c2.8,0,5-0.3,6.5-1.9c0.7-0.9,1.2-2,1.4-3.1
		c0.1-0.4,0.1-0.6,0.4-0.6c0.2,0,0.3,0.3,0.3,0.6c-0.2,1.6-0.4,3.2-0.8,4.7c-0.2,0.7-0.3,0.8-1,1.1c-2.2,0.6-4.5,0.9-6.7,0.9
		C-12336.7,2693.1-12340.4,2691.7-12343.4,2689.1z"/>
	<path id="Path_1876" class="st0" d="M-12303.4,2664c8.4,0,14.7,5.3,14.7,13.9c0,8.3-5.9,15.2-14.9,15.2c-10.3,0-14.5-7.9-14.5-14.6
		C-12318.2,2672.5-12313.7,2664-12303.4,2664z M-12302.6,2691.7c3.4,0,10.3-1.9,10.3-12.7c0-8.9-5.5-13.7-11.4-13.7
		c-6.3,0-10.9,4.1-10.9,12.2C-12314.6,2686.1-12309.4,2691.7-12302.6,2691.7L-12302.6,2691.7z"/>
	<path id="Path_1877" class="st0" d="M-12281.9,2675.3c0-5.8,0-6.8-0.1-8c-0.1-1.3-0.4-1.9-1.6-2.1c-0.4-0.1-0.8-0.1-1.3-0.1
		c-0.2,0-0.3-0.1-0.3-0.2c0-0.2,0.2-0.3,0.6-0.3c0.9,0,1.9,0,2.7,0l1.5,0.1c0.7,0,8.3,0,9.2,0c0.6,0,1.1,0,1.6-0.1
		c0.2-0.1,0.4-0.2,0.5-0.2c0.1,0,0.2,0.1,0.2,0.3c0,0.3-0.2,0.7-0.3,1.7c0,0.4-0.1,2-0.2,2.4c0,0.2-0.1,0.4-0.3,0.4
		c-0.2,0-0.3-0.2-0.3-0.4c0-0.5-0.1-1-0.3-1.4c-0.6-0.8-1.5-1.3-2.5-1.2l-5.8-0.1c-0.2,0-0.3,0.1-0.3,0.4v10.2c0,0.2,0,0.3,0.3,0.3
		l4.8,0c0.6,0,1.2,0,1.7,0c0.9-0.1,1.4-0.2,1.7-0.7c0.2-0.2,0.3-0.4,0.4-0.4c0.2,0,0.2,0.1,0.2,0.3c0,0.2-0.2,0.9-0.3,2.1
		c-0.1,0.7-0.1,2.2-0.1,2.5c0,0.3,0,0.7-0.3,0.7c-0.2,0-0.3-0.1-0.3-0.3c0-0.5-0.1-0.9-0.2-1.3c-0.3-0.8-1.1-1.3-1.9-1.3
		c-0.9-0.1-5-0.1-5.7-0.1c-0.2,0-0.3,0.1-0.3,0.3v3.1c0,3.6,0,6.5,0.2,8c0.1,1.1,0.3,1.9,1.5,2c0.6,0.1,1.1,0.1,1.7,0.1
		c0.2,0,0.3,0.1,0.3,0.2c0,0.2-0.2,0.3-0.6,0.3c-2.1,0-4.4-0.1-4.6-0.1c-0.2,0-2.5,0.1-3.7,0.1c-0.4,0-0.6-0.1-0.6-0.3
		c0-0.1,0.1-0.2,0.3-0.2c0.4,0,0.8-0.1,1.1-0.1c0.7-0.1,0.9-1,1.1-2c0.2-1.6,0.2-4.5,0.2-8L-12281.9,2675.3z"/>
	<path id="Path_1878" class="st0" d="M-12258.7,2675.3c0-5.8,0-6.8-0.1-8c-0.1-1.3-0.4-1.9-1.6-2.1c-0.4-0.1-0.8-0.1-1.3-0.1
		c-0.2,0-0.3-0.1-0.3-0.2c0-0.2,0.2-0.3,0.6-0.3c0.9,0,1.9,0,2.7,0l1.5,0.1c0.3,0,7.7,0,8.6,0c0.5,0,1.1-0.1,1.6-0.2
		c0.2,0,0.3-0.2,0.5-0.2c0.1,0,0.2,0.1,0.2,0.3c0,0.3-0.2,0.7-0.3,1.7c0,0.4-0.1,2-0.2,2.4c0,0.2-0.1,0.4-0.3,0.4
		c-0.2,0-0.3-0.2-0.3-0.5c0-0.5-0.1-0.9-0.2-1.3c-0.3-0.6-0.6-1-2.7-1.3c-0.6-0.1-4.7-0.1-5.1-0.1c-0.2,0-0.2,0.1-0.2,0.4v10.2
		c0,0.3,0,0.4,0.2,0.4c0.5,0,5.1,0,6-0.1c0.9-0.1,1.4-0.1,1.8-0.5c0.3-0.3,0.4-0.5,0.6-0.5c0.1,0,0.2,0.1,0.2,0.3s-0.2,0.9-0.3,2.1
		c-0.1,0.7-0.1,2.1-0.1,2.4c0,0.3,0,0.7-0.3,0.7c-0.2,0-0.3-0.1-0.3-0.3c0-0.4,0-0.8-0.1-1.2c-0.1-0.5-0.5-1.1-1.9-1.3
		c-1-0.1-4.7-0.2-5.4-0.2c-0.1,0-0.2,0.1-0.3,0.2c0,0,0,0,0,0.1v3.3c0,1.3,0,5.6,0,6.3c0.1,2.6,0.7,3,4.3,3c1.2,0.1,2.4-0.1,3.6-0.4
		c1-0.4,1.4-1.1,1.7-2.7c0.1-0.4,0.2-0.6,0.3-0.6c0.2,0,0.2,0.3,0.2,0.6c-0.1,1.2-0.3,2.4-0.5,3.6c-0.3,1-0.6,1-2,1
		c-2.8,0-4.9-0.1-6.3-0.1c-1.5-0.1-2.4-0.1-2.9-0.1c-0.1,0-0.7,0-1.5,0c-0.7,0-1.6,0.1-2.2,0.1c-0.4,0-0.6-0.1-0.6-0.3
		c0-0.1,0.1-0.2,0.3-0.2c0.4,0,0.8-0.1,1.1-0.1c0.7-0.1,0.9-1,1.1-2c0.2-1.6,0.2-4.5,0.2-8L-12258.7,2675.3z"/>
	<path id="Path_1879" class="st0" d="M-12232.5,2681.9c0,5.4,0.2,7.8,0.8,8.5c0.6,0.6,1.6,0.9,4.5,0.9c2,0,3.6,0,4.5-1.1
		c0.5-0.7,0.8-1.4,1-2.2c0-0.3,0.1-0.5,0.3-0.5c0.2,0,0.2,0.1,0.2,0.6c-0.1,1.2-0.3,2.5-0.6,3.7c-0.3,0.9-0.4,1-2.4,1
		c-2.7,0-4.6-0.1-6.2-0.1c-1.6-0.1-2.7-0.1-3.8-0.1c-0.1,0-0.8,0-1.5,0c-0.7,0-1.6,0.1-2.1,0.1c-0.4,0-0.6-0.1-0.6-0.3
		c0-0.1,0.1-0.2,0.3-0.2c0.4,0,0.8-0.1,1.1-0.1c0.7-0.1,0.9-1,1.1-2c0.2-1.6,0.2-4.5,0.2-8v-6.5c0-5.8,0-6.8-0.1-8
		c-0.1-1.3-0.4-1.9-1.6-2.1c-0.4-0.1-0.8-0.1-1.3-0.1c-0.1,0-0.3-0.1-0.3-0.2c0-0.2,0.2-0.3,0.6-0.3c1.7,0,4,0.1,4.2,0.1
		c0.2,0,2.9-0.1,4-0.1c0.4,0,0.6,0.1,0.6,0.3c0,0.1-0.1,0.2-0.3,0.2c-0.4,0-0.8,0-1.2,0.1c-1.1,0.2-1.4,0.8-1.5,2.1
		c-0.1,1.2-0.1,2.2-0.1,8L-12232.5,2681.9z"/>
	<path id="Path_1880" class="st0" d="M-12366.2,2711.9c0-1.4,0-1.7,0-2c0-0.3-0.1-0.5-0.4-0.5c-0.1,0-0.2,0-0.4,0
		c-0.1,0-0.2,0-0.2-0.1c0-0.1,0.1-0.1,0.2-0.1c0.3,0,0.5,0,0.8,0s0.5,0,0.6,0c0.3,0,2.2,0,2.4,0c0.1,0,0.3,0,0.4-0.1
		c0,0,0.1,0,0.2,0c0,0,0.1,0,0.1,0.1c0,0.2-0.1,0.4-0.1,0.6c0,0.1,0,0.5,0,0.6c0,0,0,0.1-0.1,0.1s-0.1,0-0.1-0.1
		c0-0.1,0-0.2-0.1-0.3c-0.1-0.2-0.2-0.3-0.6-0.3c-0.2,0-1.2,0-1.4,0c0,0-0.1,0-0.1,0.1v2.4c0,0.1,0,0.1,0.1,0.1c0.2,0,1.3,0,1.5,0
		s0.4,0,0.5-0.1c0.1-0.1,0.1-0.1,0.2-0.1s0.1,0,0.1,0.1c0,0.1,0,0.2-0.1,0.7c0,0.2,0,0.6,0,0.6s0,0.2-0.1,0.2c-0.1,0-0.1,0-0.1-0.1
		c0-0.1,0-0.2,0-0.3c0-0.2-0.2-0.3-0.5-0.4c-0.2,0-1.1,0-1.4,0c0,0-0.1,0-0.1,0.1v0.8c0,0.3,0,1.2,0,1.5c0,0.7,0.2,0.8,1.2,0.8
		c0.3,0,0.6,0,0.9-0.1c0.2-0.1,0.4-0.3,0.4-0.7c0-0.1,0-0.1,0.1-0.1c0.1,0,0.1,0.1,0.1,0.2c0,0.4-0.1,0.7-0.1,1.1
		c-0.1,0.2-0.2,0.2-0.5,0.2c-0.7,0-1.2,0-1.7,0c-0.4,0-0.7,0-1,0c-0.1,0-0.3,0-0.5,0c-0.2,0-0.5,0-0.7,0c-0.1,0-0.2,0-0.2-0.1
		c0,0,0-0.1,0.2-0.1c0.1,0,0.2,0,0.3,0c0.2,0,0.2-0.2,0.3-0.5c0-0.4,0-1.1,0-2L-12366.2,2711.9z"/>
	<path id="Path_1881" class="st0" d="M-12353.7,2715.7c0,0.3,0,0.3-0.1,0.3c-0.7,0.3-1.5,0.5-2.3,0.4c-2.4,0-4.4-1.1-4.4-3.7
		c0-1.3,0.6-2.4,1.7-3.1c0.8-0.4,1.7-0.7,2.6-0.6c0.6,0,1.1,0.1,1.7,0.2c0.3,0,0.5,0.1,0.8,0.1c0.1,0,0.1,0,0.1,0.1
		c-0.1,0.5-0.1,1-0.1,1.6c0,0.2,0,0.2-0.1,0.2s-0.1,0-0.1-0.1c0-0.3-0.1-0.6-0.3-0.8c-0.6-0.5-1.4-0.8-2.1-0.7
		c-1.4-0.1-2.7,0.9-2.8,2.3c0,0.2,0,0.4,0,0.6c-0.1,1.8,1.2,3.4,3,3.6c0.1,0,0.2,0,0.3,0c0.3,0,0.6,0,0.8-0.1
		c0.1-0.1,0.2-0.2,0.2-0.4v-0.9c0-0.5,0-0.8,0-1.1c0-0.3-0.1-0.5-0.4-0.5c-0.1,0-0.2,0-0.4,0c-0.1,0-0.1,0-0.1-0.1
		c0-0.1,0.1-0.1,0.2-0.1c0.5,0,1.1,0,1.4,0s0.8,0,1.1,0c0.1,0,0.2,0,0.2,0.1c0,0.1-0.1,0.1-0.1,0.1c-0.1,0-0.2,0-0.3,0
		c-0.3,0-0.4,0.2-0.4,0.5c0,0.3,0,0.7,0,1.1L-12353.7,2715.7z"/>
	<path id="Path_1882" class="st0" d="M-12350,2709.2c0-0.2,0.1-0.2,0.2-0.2s0.1,0,0.3,0.3l2.6,5.4l2.6-5.4c0.1-0.2,0.1-0.2,0.2-0.2
		c0.1,0,0.1,0.1,0.2,0.3l0.9,5.9c0.1,0.6,0.2,0.9,0.5,1c0.2,0.1,0.4,0.1,0.6,0.1c0.1,0,0.2,0,0.2,0.1c0,0.1-0.1,0.1-0.2,0.1
		c-0.2,0-1.6,0-1.9-0.1c-0.2,0-0.3,0-0.3-0.1s0-0.1,0.1-0.1c0.1,0,0.1-0.1,0-0.4l-0.6-4.2h0l-2.1,4.3c-0.2,0.4-0.3,0.5-0.4,0.5
		s-0.2-0.2-0.3-0.5c-0.2-0.4-1-1.9-1.1-2.2c-0.1-0.2-0.7-1.4-1-2.1h0l-0.5,3.8c0,0.1,0,0.3,0,0.4c0,0.2,0.1,0.3,0.3,0.3
		c0.1,0,0.3,0,0.4,0c0.1,0,0.1,0,0.1,0.1c0,0.1-0.1,0.1-0.2,0.1c-0.4,0-0.8,0-1,0s-0.6,0-1,0c-0.1,0-0.2,0-0.2-0.1
		c0,0,0.1-0.1,0.2-0.1c0.1,0,0.2,0,0.3,0c0.3-0.1,0.3-0.4,0.4-0.8L-12350,2709.2z"/>
	<path id="Path_1883" class="st0" d="M-12340.9,2712.7c0-2,1.6-3.7,3.6-3.7c0.1,0,0.2,0,0.3,0c2.4,0,3.9,1.4,3.9,3.6
		c0.1,2.1-1.6,3.8-3.6,3.9c-0.1,0-0.2,0-0.3,0c-2,0.1-3.7-1.4-3.9-3.4C-12340.9,2713-12340.9,2712.8-12340.9,2712.7z
		 M-12334.4,2712.9c0-2.1-1.2-3.4-2.8-3.4c-1.1,0-2.4,0.6-2.4,3c0,2,1.1,3.5,2.9,3.5C-12335.9,2716-12334.4,2715.7-12334.4,2712.9
		L-12334.4,2712.9z"/>
	<path id="Path_1884" class="st0" d="M-12329.8,2715c0,0.7,0.1,1,0.3,1.1c0.2,0,0.3,0.1,0.5,0.1c0.1,0,0.2,0,0.2,0.1
		c0,0.1-0.1,0.1-0.2,0.1c-0.6,0-1,0-1.2,0c-0.1,0-0.5,0-1,0c-0.1,0-0.2,0-0.2-0.1c0-0.1,0.1-0.1,0.2-0.1c0.1,0,0.3,0,0.4,0
		c0.2-0.1,0.3-0.4,0.3-1.2l0.1-5.6c0-0.2,0-0.3,0.1-0.3s0.2,0.1,0.4,0.3c0.1,0.1,1.6,1.7,3,3c0.7,0.6,1.9,2,2.1,2.2h0l-0.1-4.3
		c0-0.6-0.1-0.8-0.3-0.9c-0.2,0-0.3-0.1-0.5-0.1c-0.1,0-0.2,0-0.2-0.1c0-0.1,0.1-0.1,0.2-0.1c0.5,0,1,0,1.2,0c0.1,0,0.5,0,0.9,0
		c0.1,0,0.2,0,0.2,0.1c0,0.1-0.1,0.1-0.2,0.1c-0.1,0-0.2,0-0.3,0c-0.3,0.1-0.3,0.3-0.4,0.8l-0.1,6c0,0.2,0,0.3-0.1,0.3
		c-0.1,0-0.2-0.1-0.3-0.2c-0.6-0.6-1.8-1.8-2.8-2.8c-1-1-2.1-2.2-2.3-2.4h0L-12329.8,2715z"/>
	<path id="Path_1885" class="st0" d="M-12319.1,2709.7l-1.4,0c-0.6,0-0.8,0.1-0.9,0.3c-0.1,0.1-0.1,0.2-0.2,0.3c0,0.1,0,0.1-0.1,0.1
		s-0.1,0-0.1-0.2c0-0.2,0.2-1,0.2-1.1c0-0.1,0.1-0.2,0.1-0.2c0.1,0.1,0.3,0.1,0.4,0.1c0.3,0,0.6,0,1,0h3.8c0.2,0,0.4,0,0.7,0
		c0.1,0,0.2,0,0.3,0c0.1,0,0.1,0.1,0.1,0.2c0,0.2,0,0.9,0,1.1c0,0.1,0,0.2-0.1,0.2c-0.1,0-0.1,0-0.1-0.2l0-0.1
		c0-0.2-0.3-0.5-1.1-0.5l-1.2,0v3.9c0,0.9,0,1.6,0,2c0,0.3,0.1,0.5,0.4,0.5c0.2,0,0.3,0,0.5,0c0.1,0,0.2,0,0.2,0.1
		c0,0.1-0.1,0.1-0.2,0.1c-0.6,0-1.2,0-1.5,0c-0.2,0-0.8,0-1.2,0c-0.1,0-0.2,0-0.2-0.1c0,0,0-0.1,0.2-0.1s0.2,0,0.3,0
		c0.2,0,0.2-0.2,0.3-0.5c0-0.4,0-1.1,0-2L-12319.1,2709.7z"/>
	<path id="Path_1886" class="st0" d="M-12308.9,2715.4c-1.5-1.4-1.6-3.8-0.2-5.3c0,0,0.1-0.1,0.1-0.1c0.8-0.7,1.9-1.1,3-1
		c0.5,0,0.9,0,1.4,0.1c0.4,0,0.7,0.1,1,0.2c0.1,0,0.1,0.1,0.1,0.1c0,0.1,0,0.2,0,0.5c0,0.3,0,0.8,0,1c0,0.1,0,0.2-0.1,0.2
		s-0.1-0.1-0.1-0.2c0-0.3-0.1-0.6-0.4-0.9c-0.6-0.4-1.2-0.6-1.9-0.6c-0.7,0-1.3,0.2-1.8,0.6c-0.6,0.7-1,1.6-0.9,2.5
		c-0.1,1.8,1.3,3.3,3,3.4c0,0,0,0,0,0c0.6,0.1,1.3-0.1,1.8-0.5c0.2-0.2,0.3-0.4,0.3-0.6c0-0.2,0-0.2,0.1-0.2s0.1,0.1,0.1,0.1
		c0,0.4-0.1,0.8-0.2,1.3c0,0.1-0.1,0.2-0.2,0.3c-0.6,0.2-1.1,0.2-1.7,0.2C-12306.8,2716.5-12307.9,2716.2-12308.9,2715.4z"/>
	<path id="Path_1887" class="st0" d="M-12300.6,2711.9c0-1.4,0-1.7,0-2c0-0.3-0.1-0.5-0.4-0.5c-0.1,0-0.2,0-0.4,0
		c-0.1,0-0.2,0-0.2-0.1c0-0.1,0.1-0.1,0.2-0.1c0.3,0,0.5,0,0.8,0s0.5,0,0.6,0c0.3,0,2.2,0,2.4,0c0.1,0,0.3,0,0.4-0.1
		c0,0,0.1,0,0.2,0c0,0,0.1,0,0.1,0.1c0,0.2-0.1,0.4-0.1,0.6c0,0.1,0,0.5,0,0.6c0,0,0,0.1-0.1,0.1s-0.1,0-0.1-0.1
		c0-0.1,0-0.2-0.1-0.3c-0.1-0.2-0.2-0.3-0.6-0.3c-0.2,0-1.2,0-1.4,0c0,0-0.1,0-0.1,0.1v2.4c0,0.1,0,0.1,0.1,0.1c0.2,0,1.3,0,1.5,0
		c0.2,0,0.3,0,0.5-0.1c0.1-0.1,0.1-0.1,0.2-0.1s0.1,0,0.1,0.1c0,0.1,0,0.2-0.1,0.7c0,0.2,0,0.6,0,0.6s0,0.2-0.1,0.2
		c0,0-0.1,0-0.1-0.1c0,0,0,0,0,0c0-0.1,0-0.2,0-0.3c0-0.2-0.2-0.3-0.5-0.4c-0.2,0-1.1,0-1.4,0c0,0-0.1,0-0.1,0.1v0.8
		c0,0.3,0,1.2,0,1.5c0,0.7,0.2,0.8,1.2,0.8c0.3,0,0.6,0,0.9-0.1c0.2-0.1,0.4-0.3,0.4-0.7c0-0.1,0-0.1,0.1-0.1c0.1,0,0.1,0.1,0.1,0.2
		c0,0.4-0.1,0.7-0.1,1.1c-0.1,0.2-0.2,0.2-0.5,0.2c-0.7,0-1.2,0-1.7,0c-0.4,0-0.7,0-1,0c-0.1,0-0.3,0-0.5,0c-0.2,0-0.5,0-0.7,0
		c-0.1,0-0.2,0-0.2-0.1c0,0,0-0.1,0.2-0.1c0.1,0,0.2,0,0.3,0c0.2,0,0.2-0.2,0.3-0.5c0-0.4,0-1.1,0-2L-12300.6,2711.9z"/>
	<path id="Path_1888" class="st0" d="M-12293.2,2715c0,0.7,0.1,1,0.3,1.1c0.2,0,0.3,0.1,0.5,0.1c0.1,0,0.2,0,0.2,0.1
		c0,0.1-0.1,0.1-0.2,0.1c-0.6,0-1,0-1.2,0c-0.1,0-0.5,0-1,0c-0.1,0-0.2,0-0.2-0.1c0-0.1,0.1-0.1,0.2-0.1c0.1,0,0.3,0,0.4,0
		c0.2-0.1,0.3-0.4,0.3-1.2l0.1-5.6c0-0.2,0-0.3,0.1-0.3c0.1,0,0.2,0.1,0.4,0.3c0.1,0.1,1.6,1.7,3,3c0.7,0.6,1.9,2,2.1,2.2h0
		l-0.1-4.3c0-0.6-0.1-0.8-0.3-0.9c-0.2,0-0.3-0.1-0.5-0.1c-0.1,0-0.2,0-0.2-0.1c0-0.1,0.1-0.1,0.2-0.1c0.5,0,1,0,1.2,0
		c0.1,0,0.5,0,0.9,0c0.1,0,0.2,0,0.2,0.1c0,0.1-0.1,0.1-0.2,0.1c-0.1,0-0.2,0-0.3,0c-0.3,0.1-0.3,0.3-0.4,0.8l-0.1,6
		c0,0.2,0,0.3-0.1,0.3c-0.1,0-0.2-0.1-0.3-0.2c-0.6-0.6-1.8-1.8-2.8-2.8c-1-1-2.1-2.2-2.3-2.4h0L-12293.2,2715z"/>
	<path id="Path_1889" class="st0" d="M-12282.5,2709.7l-1.4,0c-0.6,0-0.8,0.1-0.9,0.3c-0.1,0.1-0.1,0.2-0.2,0.3c0,0.1,0,0.1-0.1,0.1
		c-0.1,0-0.1,0-0.1-0.2c0-0.2,0.2-1,0.2-1.1c0-0.1,0.1-0.2,0.1-0.2c0.1,0.1,0.3,0.1,0.4,0.1c0.3,0,0.6,0,1,0h3.8c0.2,0,0.4,0,0.7,0
		c0.1,0,0.2,0,0.3,0c0.1,0,0.1,0.1,0.1,0.2c0,0.2,0,0.9,0,1.1c0,0.1,0,0.2-0.1,0.2c-0.1,0-0.1,0-0.1-0.2l0-0.1
		c0-0.2-0.3-0.5-1.1-0.5l-1.2,0v3.9c0,0.9,0,1.6,0,2c0,0.3,0.1,0.5,0.4,0.5c0.2,0,0.3,0,0.5,0c0.1,0,0.2,0,0.2,0.1
		c0,0.1-0.1,0.1-0.2,0.1c-0.6,0-1.2,0-1.5,0c-0.2,0-0.8,0-1.2,0c-0.1,0-0.2,0-0.2-0.1c0,0,0-0.1,0.2-0.1c0.1,0,0.2,0,0.3,0
		c0.2,0,0.2-0.2,0.3-0.5c0-0.4,0-1.1,0-2L-12282.5,2709.7z"/>
	<path id="Path_1890" class="st0" d="M-12276,2711.9c0-1.4,0-1.7,0-2c0-0.3-0.1-0.5-0.4-0.5c-0.1,0-0.2,0-0.4,0
		c-0.1,0-0.2,0-0.2-0.1c0-0.1,0.1-0.1,0.2-0.1c0.5,0,1.1,0,1.3,0c0.3,0,1.1,0,1.4,0c0.6,0,1.2,0.1,1.8,0.4c0.4,0.3,0.6,0.8,0.7,1.3
		c0,0.9-0.5,1.7-1.3,2.1c0.9,1.1,1.5,1.9,2.1,2.5c0.3,0.3,0.7,0.6,1.1,0.6c0.1,0,0.2,0,0.3,0c0.1,0,0.1,0,0.1,0.1
		c0,0.1-0.1,0.1-0.2,0.1h-0.9c-0.4,0-0.7,0-1-0.2c-0.5-0.4-1-0.8-1.3-1.4c-0.4-0.5-0.8-1.2-1-1.3c0,0-0.1-0.1-0.2-0.1l-0.8,0
		c0,0-0.1,0-0.1,0.1v0.1c0,0.9,0,1.6,0,2c0,0.3,0.1,0.5,0.4,0.5c0.2,0,0.3,0,0.5,0c0.1,0,0.1,0,0.1,0.1c0,0.1-0.1,0.1-0.2,0.1
		c-0.6,0-1.3,0-1.4,0c-0.2,0-0.8,0-1.2,0c-0.1,0-0.2,0-0.2-0.1c0,0,0-0.1,0.2-0.1c0.1,0,0.2,0,0.3,0c0.2,0,0.2-0.2,0.3-0.5
		c0-0.4,0-1.1,0-2L-12276,2711.9z M-12274.9,2712.7c0,0.1,0,0.1,0.1,0.2c0.2,0.1,0.5,0.1,0.7,0.1c0.2,0,0.5,0,0.7-0.2
		c0.4-0.4,0.6-0.9,0.6-1.4c0.1-0.8-0.5-1.6-1.3-1.7c-0.1,0-0.1,0-0.2,0c-0.2,0-0.3,0-0.5,0c-0.1,0-0.1,0.1-0.1,0.1V2712.7z"/>
	<path id="Path_1891" class="st0" d="M-12267.3,2711.9c0-1.4,0-1.7,0-2c0-0.3-0.1-0.5-0.4-0.5c-0.1,0-0.2,0-0.4,0
		c-0.1,0-0.2,0-0.2-0.1c0-0.1,0.1-0.1,0.2-0.1c0.3,0,0.5,0,0.8,0c0.2,0,0.5,0,0.6,0c0.3,0,2.2,0,2.4,0c0.1,0,0.3,0,0.4-0.1
		c0,0,0.1,0,0.2,0c0,0,0.1,0,0.1,0.1c0,0.2-0.1,0.4-0.1,0.6c0,0.1,0,0.5,0,0.6c0,0,0,0.1-0.1,0.1s-0.1,0-0.1-0.1
		c0-0.1,0-0.2-0.1-0.3c-0.1-0.2-0.2-0.3-0.6-0.3c-0.2,0-1.2,0-1.4,0c0,0-0.1,0-0.1,0.1v2.4c0,0.1,0,0.1,0.1,0.1c0.2,0,1.3,0,1.5,0
		c0.2,0,0.4,0,0.5-0.1c0.1-0.1,0.1-0.1,0.2-0.1s0.1,0,0.1,0.1c0,0.1,0,0.2-0.1,0.7c0,0.2,0,0.6,0,0.6s0,0.2-0.1,0.2
		c0,0-0.1,0-0.1-0.1c0,0,0,0,0,0c0-0.1,0-0.2,0-0.3c0-0.2-0.2-0.3-0.5-0.4c-0.2,0-1.1,0-1.4,0c0,0-0.1,0-0.1,0.1v0.8
		c0,0.3,0,1.2,0,1.5c0,0.7,0.2,0.8,1.2,0.8c0.3,0,0.6,0,0.9-0.1c0.2-0.1,0.4-0.3,0.4-0.7c0-0.1,0-0.1,0.1-0.1s0.1,0.1,0.1,0.2
		c0,0.4-0.1,0.7-0.1,1.1c-0.1,0.2-0.2,0.2-0.5,0.2c-0.7,0-1.2,0-1.7,0c-0.4,0-0.7,0-1,0c-0.1,0-0.3,0-0.5,0c-0.2,0-0.5,0-0.7,0
		c-0.1,0-0.2,0-0.2-0.1c0,0,0-0.1,0.2-0.1c0.1,0,0.2,0,0.3,0c0.2,0,0.2-0.2,0.3-0.5c0-0.4,0-1.1,0-2L-12267.3,2711.9z"/>
	<path id="Path_1892" class="st0" d="M-12257.8,2712.7c0-2,1.6-3.7,3.6-3.7c0.1,0,0.2,0,0.3,0c2.4,0,3.9,1.4,3.9,3.6
		c0.1,2.1-1.6,3.8-3.6,3.9c-0.1,0-0.2,0-0.3,0c-2,0.1-3.7-1.4-3.9-3.4C-12257.8,2713-12257.8,2712.8-12257.8,2712.7z
		 M-12251.3,2712.9c0-2.1-1.2-3.4-2.8-3.4c-1.1,0-2.4,0.6-2.4,3c0,2,1.1,3.5,2.9,3.5C-12252.8,2716-12251.3,2715.7-12251.3,2712.9
		L-12251.3,2712.9z"/>
	<path id="Path_1893" class="st0" d="M-12246.2,2713.6c0,0.9,0,1.6,0,2c0,0.3,0.1,0.5,0.4,0.5c0.2,0,0.3,0,0.5,0
		c0.1,0,0.2,0,0.2,0.1c0,0.1-0.1,0.1-0.2,0.1c-0.6,0-1.2,0-1.5,0s-0.9,0-1.2,0c-0.1,0-0.2,0-0.2-0.1c0,0,0-0.1,0.1-0.1
		c0.1,0,0.2,0,0.3,0c0.2,0,0.2-0.2,0.3-0.5c0-0.4,0-1.1,0-2v-1.7c0-1.4,0-1.7,0-2c0-0.3-0.1-0.5-0.4-0.5c-0.1,0-0.2,0-0.4,0
		c-0.1,0-0.2,0-0.2-0.1c0-0.1,0.1-0.1,0.2-0.1c0.2,0,0.5,0,0.8,0s0.5,0,0.6,0c0.4,0,2.3,0,2.5,0c0.1,0,0.3,0,0.4,0
		c0,0,0.1,0,0.2-0.1c0,0,0.1,0,0.1,0.1c0,0,0,0,0,0c0,0.1,0,0.2-0.1,0.4c0,0.1,0,0.7,0,0.8c0,0.1,0,0.1-0.1,0.1s-0.1,0-0.1-0.2
		c0-0.1,0-0.2-0.1-0.4c-0.1-0.2-0.4-0.3-0.6-0.3l-1.5,0c-0.1,0-0.1,0-0.1,0.1v2.4c0,0.1,0,0.1,0.1,0.1l1.2,0c0.2,0,0.3,0,0.4,0
		c0.2,0,0.3-0.1,0.4-0.2c0-0.1,0.1-0.1,0.1-0.1c0,0,0.1,0,0.1,0.1c0,0.1,0,0.3-0.1,0.6c0,0.2,0,0.6,0,0.7c0,0.1,0,0.2-0.1,0.2
		c-0.1,0-0.1-0.1-0.1-0.1c0-0.1,0-0.2-0.1-0.3c-0.1-0.2-0.3-0.3-0.5-0.3c-0.2,0-1.3,0-1.4,0c0,0-0.1,0-0.1,0.1L-12246.2,2713.6z"/>
	<path id="Path_1894" class="st0" d="M-12235.7,2713.6c0,0.9,0,1.6,0,2c0,0.3,0.1,0.5,0.4,0.5c0.2,0,0.3,0,0.5,0
		c0.1,0,0.2,0,0.2,0.1c0,0.1-0.1,0.1-0.2,0.1c-0.6,0-1.2,0-1.5,0s-0.9,0-1.2,0c-0.1,0-0.2,0-0.2-0.1c0,0,0-0.1,0.1-0.1
		c0.1,0,0.2,0,0.3,0c0.2,0,0.2-0.2,0.3-0.5c0-0.4,0-1.1,0-2v-1.7c0-1.4,0-1.7,0-2c0-0.3-0.1-0.5-0.4-0.5c-0.1,0-0.2,0-0.4,0
		c-0.1,0-0.2,0-0.2-0.1c0-0.1,0.1-0.1,0.2-0.1c0.2,0,0.5,0,0.8,0s0.5,0,0.6,0c0.4,0,2.3,0,2.5,0c0.1,0,0.3,0,0.4,0
		c0,0,0.1,0,0.2-0.1c0,0,0.1,0,0.1,0.1c0,0.1,0,0.2-0.1,0.4c0,0.1,0,0.7,0,0.8c0,0.1,0,0.1-0.1,0.1c-0.1,0-0.1,0-0.1-0.2
		c0-0.1,0-0.2-0.1-0.4c-0.1-0.2-0.4-0.3-0.6-0.3l-1.5,0c-0.1,0-0.1,0-0.1,0.1v2.4c0,0.1,0,0.1,0.1,0.1l1.2,0c0.2,0,0.3,0,0.4,0
		c0.2,0,0.3-0.1,0.4-0.2c0-0.1,0.1-0.1,0.1-0.1c0,0,0.1,0,0.1,0.1c0,0.1,0,0.3-0.1,0.6c0,0.2,0,0.6,0,0.7c0,0.1,0,0.2-0.1,0.2
		c-0.1,0-0.1-0.1-0.1-0.1c0-0.1,0-0.2-0.1-0.3c-0.1-0.2-0.3-0.3-0.5-0.3c-0.2,0-1.3,0-1.4,0c0,0-0.1,0-0.1,0.1L-12235.7,2713.6z"/>
	<path id="Path_1895" class="st0" d="M-12230.3,2711.9c0-1.4,0-1.7,0-2c0-0.3-0.1-0.5-0.3-0.5c-0.1,0-0.2,0-0.3,0
		c-0.1,0-0.2,0-0.2-0.1c0-0.1,0.1-0.1,0.2-0.1c0.4,0,1,0,1.2,0c0.2,0,0.8,0,1.2,0c0.1,0,0.2,0,0.2,0.1c0,0.1-0.1,0.1-0.2,0.1
		c-0.1,0-0.2,0-0.3,0c-0.3,0-0.3,0.2-0.4,0.5c0,0.3,0,0.6,0,2v1.7c0,0.9,0,1.7,0,2.1c0,0.3,0.1,0.4,0.4,0.5c0.2,0,0.3,0,0.5,0
		c0.1,0,0.2,0,0.2,0.1c0,0.1-0.1,0.1-0.2,0.1c-0.6,0-1.2,0-1.5,0c-0.2,0-0.8,0-1.2,0c-0.1,0-0.2,0-0.2-0.1c0,0,0-0.1,0.2-0.1
		c0.1,0,0.2,0,0.3,0c0.2,0,0.2-0.2,0.3-0.5c0-0.4,0-1.1,0-2.1L-12230.3,2711.9z"/>
	<path id="Path_1896" class="st0" d="M-12225.5,2711.9c0-1.4,0-1.7,0-2c0-0.3-0.1-0.5-0.4-0.5c-0.1,0-0.2,0-0.4,0
		c-0.1,0-0.2,0-0.2-0.1c0-0.1,0.1-0.1,0.2-0.1c0.5,0,1.1,0,1.4,0c0.2,0,0.8,0,1.2,0c0.1,0,0.2,0,0.2,0.1c0,0.1-0.1,0.1-0.2,0.1
		c-0.1,0-0.2,0-0.3,0c-0.3,0-0.3,0.2-0.4,0.5c0,0.3,0,0.6,0,2v1.3c0,1.4,0.3,2,0.7,2.3c0.3,0.3,0.8,0.4,1.2,0.4c0.5,0,1-0.2,1.3-0.5
		c0.5-0.7,0.7-1.5,0.6-2.4v-1.2c0-1.4,0-1.7,0-2c0-0.3-0.1-0.5-0.4-0.5c-0.1,0-0.2,0-0.3,0c-0.1,0-0.2,0-0.2-0.1
		c0-0.1,0.1-0.1,0.2-0.1c0.5,0,1.1,0,1.1,0c0.1,0,0.7,0,1.1,0c0.1,0,0.2,0,0.2,0.1c0,0.1-0.1,0.1-0.2,0.1c-0.1,0-0.2,0-0.3,0
		c-0.3,0-0.3,0.2-0.4,0.5c0,0.3,0,0.6,0,2v1c0.1,1-0.2,2.1-0.9,2.9c-0.6,0.5-1.3,0.7-2,0.7c-1.5,0.2-2.8-0.8-3-2.3
		c0-0.3,0-0.6,0-0.9L-12225.5,2711.9z"/>
	<path id="Path_1897" class="st0" d="M-12366.2,2725.4c0-1.4,0-1.7,0-2c0-0.3-0.1-0.5-0.4-0.5c-0.1,0-0.2,0-0.4,0
		c-0.1,0-0.2,0-0.2-0.1c0-0.1,0.1-0.1,0.2-0.1c0.3,0,0.5,0,0.8,0s0.5,0,0.6,0c0.3,0,2.2,0,2.4,0c0.1,0,0.3,0,0.4-0.1
		c0,0,0.1,0,0.2,0c0,0,0.1,0,0.1,0.1c0,0.2-0.1,0.4-0.1,0.6c0,0.1,0,0.5,0,0.6c0,0,0,0.1-0.1,0.1s-0.1,0-0.1-0.1
		c0-0.1,0-0.2-0.1-0.3c-0.1-0.2-0.2-0.3-0.6-0.3c-0.2,0-1.2,0-1.4,0c0,0-0.1,0-0.1,0.1v2.4c0,0.1,0,0.1,0.1,0.1c0.2,0,1.3,0,1.5,0
		c0.2,0,0.3,0,0.5-0.1c0.1-0.1,0.1-0.1,0.2-0.1s0.1,0,0.1,0.1s0,0.2-0.1,0.7c0,0.2,0,0.6,0,0.6c0,0.1,0,0.2-0.1,0.2
		c-0.1,0-0.1,0-0.1-0.1c0-0.1,0-0.2,0-0.3c0-0.2-0.2-0.3-0.5-0.4c-0.2,0-1.1,0-1.4,0c0,0-0.1,0-0.1,0.1v0.8c0,0.3,0,1.2,0,1.5
		c0,0.7,0.2,0.8,1.2,0.8c0.3,0,0.6,0,0.9-0.1c0.2-0.1,0.4-0.3,0.4-0.7c0-0.1,0-0.1,0.1-0.1c0.1,0,0.1,0.1,0.1,0.2
		c0,0.4-0.1,0.7-0.1,1.1c-0.1,0.2-0.2,0.2-0.5,0.2c-0.7,0-1.2,0-1.7,0s-0.7,0-1,0c-0.1,0-0.3,0-0.5,0c-0.2,0-0.5,0-0.7,0
		c-0.1,0-0.2,0-0.2-0.1c0,0,0-0.1,0.2-0.1c0.1,0,0.2,0,0.3,0c0.2,0,0.2-0.2,0.3-0.5c0-0.4,0-1.1,0-2L-12366.2,2725.4z"/>
	<path id="Path_1898" class="st0" d="M-12356.7,2725.9c0.3,0.5,1.9,3,2.1,3.3c0.1,0.2,0.3,0.3,0.6,0.4c0.1,0,0.2,0.1,0.4,0.1
		c0.1,0,0.1,0,0.1,0.1c0,0.1-0.1,0.1-0.2,0.1h-0.3c-0.2,0-1,0-1.7,0c-0.2,0-0.3,0-0.3-0.1c0-0.1,0-0.1,0.1-0.1c0,0,0.1-0.1,0-0.2
		c-0.5-0.9-1.1-1.9-1.5-2.6l-1.4,2.3c-0.1,0.1-0.1,0.3-0.1,0.4c0,0.1,0.1,0.2,0.2,0.2c0.1,0,0.1,0,0.2,0c0.1,0,0.1,0,0.1,0.1
		c0,0.1-0.1,0.1-0.2,0.1h-0.2c-0.1,0-0.7,0-0.9,0c-0.2,0-0.7,0-0.8,0h-0.2c-0.1,0-0.1,0-0.1-0.1c0-0.1,0.1-0.1,0.1-0.1
		c0.1,0,0.2,0,0.4,0c0.3-0.1,0.5-0.3,0.8-0.7l1.8-2.6l-1.7-2.7c-0.2-0.3-0.5-0.6-0.8-0.7c-0.1,0-0.3-0.1-0.4-0.1c0,0-0.1,0-0.1-0.1
		c0,0,0,0,0,0c0-0.1,0.1-0.1,0.2-0.1c0.2,0,1,0,1.5,0c0.1,0,0.7,0,1,0c0.1,0,0.2,0,0.2,0.1c0,0.1-0.1,0.1-0.1,0.1
		c-0.1,0-0.2,0-0.3,0c-0.1,0-0.1,0.1-0.1,0.2c0,0.1,0,0.2,0.1,0.3c0.4,0.8,0.8,1.5,1.2,2.1c0.3-0.4,1.2-1.7,1.3-2
		c0.1-0.1,0.1-0.2,0.1-0.4c0-0.1-0.1-0.2-0.2-0.2c-0.1,0-0.2,0-0.3,0c-0.1,0-0.1,0-0.1-0.1s0.1-0.1,0.2-0.1c0.4,0,0.8,0,1,0
		c0.2,0,0.6,0,0.9,0c0.1,0,0.2,0,0.2,0.1s-0.1,0.1-0.2,0.1c-0.1,0-0.2,0-0.3,0.1c-0.2,0.1-0.4,0.3-0.7,0.7L-12356.7,2725.9z"/>
	<path id="Path_1899" class="st0" d="M-12351.8,2729c-1.5-1.4-1.6-3.8-0.2-5.3c0,0,0.1-0.1,0.1-0.1c0.8-0.7,1.9-1.1,3-1
		c0.5,0,0.9,0,1.4,0.1c0.4,0,0.7,0.1,1,0.2c0.1,0,0.1,0.1,0.1,0.1c0,0.1,0,0.2,0,0.5c0,0.3,0,0.8,0,1c0,0.1,0,0.2-0.1,0.2
		s-0.1-0.1-0.1-0.2c0-0.3-0.1-0.6-0.4-0.9c-0.6-0.4-1.2-0.6-1.9-0.6c-0.7,0-1.3,0.2-1.8,0.6c-0.6,0.7-1,1.6-0.9,2.5
		c-0.1,1.8,1.3,3.3,3,3.4c0,0,0,0,0,0c0.6,0.1,1.3-0.1,1.8-0.5c0.2-0.2,0.3-0.4,0.3-0.6c0-0.2,0-0.2,0.1-0.2s0.1,0.1,0.1,0.1
		c0,0.4-0.1,0.8-0.2,1.3c0,0.1-0.1,0.2-0.2,0.3c-0.6,0.2-1.1,0.2-1.7,0.2C-12349.7,2730.1-12350.8,2729.7-12351.8,2729z"/>
	<path id="Path_1900" class="st0" d="M-12343.5,2725.4c0-1.4,0-1.7,0-2c0-0.3-0.1-0.5-0.4-0.5c-0.1,0-0.2,0-0.4,0
		c-0.1,0-0.2,0-0.2-0.1c0-0.1,0.1-0.1,0.2-0.1c0.3,0,0.5,0,0.8,0c0.2,0,0.5,0,0.6,0c0.3,0,2.2,0,2.4,0c0.1,0,0.3,0,0.4-0.1
		c0,0,0.1,0,0.2,0c0,0,0.1,0,0.1,0.1c0,0.2-0.1,0.4-0.1,0.6c0,0.1,0,0.5,0,0.6c0,0,0,0.1-0.1,0.1s-0.1,0-0.1-0.1
		c0-0.1,0-0.2-0.1-0.3c-0.1-0.2-0.2-0.3-0.6-0.3c-0.2,0-1.2,0-1.4,0c0,0-0.1,0-0.1,0.1v2.4c0,0.1,0,0.1,0.1,0.1c0.2,0,1.3,0,1.5,0
		c0.2,0,0.3,0,0.5-0.1c0.1-0.1,0.1-0.1,0.2-0.1s0.1,0,0.1,0.1s0,0.2-0.1,0.7c0,0.2,0,0.6,0,0.6c0,0.1,0,0.2-0.1,0.2
		c-0.1,0-0.1,0-0.1-0.1c0-0.1,0-0.2,0-0.3c0-0.2-0.2-0.3-0.5-0.4c-0.2,0-1.1,0-1.4,0c0,0-0.1,0-0.1,0.1v0.8c0,0.3,0,1.2,0,1.5
		c0,0.7,0.2,0.8,1.2,0.8c0.3,0,0.6,0,0.9-0.1c0.2-0.1,0.4-0.3,0.4-0.7c0-0.1,0-0.1,0.1-0.1s0.1,0.1,0.1,0.2c0,0.4-0.1,0.7-0.1,1.1
		c-0.1,0.2-0.2,0.2-0.5,0.2c-0.7,0-1.2,0-1.7,0s-0.7,0-1,0c-0.1,0-0.3,0-0.5,0c-0.2,0-0.5,0-0.7,0c-0.1,0-0.2,0-0.2-0.1
		c0,0,0-0.1,0.2-0.1s0.2,0,0.3,0c0.2,0,0.2-0.2,0.3-0.5c0-0.4,0-1.1,0-2L-12343.5,2725.4z"/>
	<path id="Path_1901" class="st0" d="M-12335.6,2727.1c0,1.2,0,1.9,0.2,2c0.2,0.1,0.4,0.2,1.2,0.2c0.5,0,0.9,0,1.1-0.3
		c0.1-0.2,0.2-0.4,0.2-0.6c0-0.1,0-0.1,0.1-0.1c0.1,0,0.1,0,0.1,0.2c0,0.4-0.1,0.7-0.1,1.1c-0.1,0.2-0.1,0.3-0.6,0.3
		c-0.7,0-1.2,0-1.6,0c-0.4,0-0.8,0-1.2,0c-0.1,0-0.3,0-0.5,0c-0.2,0-0.5,0-0.7,0c-0.1,0-0.2,0-0.2-0.1c0,0,0-0.1,0.2-0.1
		c0.1,0,0.2,0,0.3,0c0.2,0,0.2-0.2,0.3-0.5c0-0.4,0-1.1,0-2v-1.7c0-1.4,0-1.7,0-2c0-0.3-0.1-0.5-0.4-0.5c-0.1,0-0.2,0-0.3,0
		c-0.1,0-0.2,0-0.2-0.1c0-0.1,0.1-0.1,0.2-0.1c0.5,0,1.1,0,1.3,0c0.2,0,0.9,0,1.3,0c0.1,0,0.2,0,0.2,0.1c0,0.1-0.1,0.1-0.2,0.1
		c-0.1,0-0.2,0-0.4,0c-0.3,0-0.3,0.2-0.4,0.5c0,0.3,0,0.6,0,2L-12335.6,2727.1z"/>
	<path id="Path_1902" class="st0" d="M-12329,2727.1c0,1.2,0,1.9,0.2,2c0.2,0.1,0.4,0.2,1.2,0.2c0.5,0,0.9,0,1.1-0.3
		c0.1-0.2,0.2-0.4,0.2-0.6c0-0.1,0-0.1,0.1-0.1s0.1,0,0.1,0.2c0,0.4-0.1,0.7-0.1,1.1c-0.1,0.2-0.1,0.3-0.6,0.3c-0.7,0-1.2,0-1.6,0
		c-0.4,0-0.8,0-1.2,0c-0.1,0-0.3,0-0.5,0c-0.2,0-0.5,0-0.7,0c-0.1,0-0.2,0-0.2-0.1c0,0,0-0.1,0.2-0.1c0.1,0,0.2,0,0.3,0
		c0.2,0,0.2-0.2,0.3-0.5c0-0.4,0-1.1,0-2v-1.7c0-1.4,0-1.7,0-2c0-0.3-0.1-0.5-0.4-0.5c-0.1,0-0.2,0-0.3,0c-0.1,0-0.2,0-0.2-0.1
		c0-0.1,0.1-0.1,0.2-0.1c0.5,0,1.1,0,1.3,0c0.2,0,0.9,0,1.3,0c0.1,0,0.2,0,0.2,0.1c0,0.1-0.1,0.1-0.2,0.1c-0.1,0-0.2,0-0.4,0
		c-0.3,0-0.3,0.2-0.4,0.5c0,0.3,0,0.6,0,2L-12329,2727.1z"/>
	<path id="Path_1903" class="st0" d="M-12323.5,2725.4c0-1.4,0-1.7,0-2c0-0.3-0.1-0.5-0.4-0.5c-0.1,0-0.2,0-0.4,0
		c-0.1,0-0.2,0-0.2-0.1c0-0.1,0.1-0.1,0.2-0.1c0.3,0,0.5,0,0.8,0c0.2,0,0.5,0,0.6,0c0.3,0,2.2,0,2.4,0c0.1,0,0.3,0,0.4-0.1
		c0.1,0,0.1,0,0.2,0c0,0,0.1,0,0.1,0.1c0,0.2-0.1,0.4-0.1,0.6c0,0.1,0,0.5,0,0.6c0,0,0,0.1-0.1,0.1s-0.1,0-0.1-0.1
		c0-0.1,0-0.2-0.1-0.3c-0.1-0.2-0.2-0.3-0.6-0.3c-0.2,0-1.2,0-1.4,0c0,0-0.1,0-0.1,0.1v2.4c0,0.1,0,0.1,0.1,0.1c0.2,0,1.3,0,1.5,0
		c0.2,0,0.3,0,0.5-0.1c0.1-0.1,0.1-0.1,0.2-0.1s0.1,0,0.1,0.1s0,0.2-0.1,0.7c0,0.2,0,0.6,0,0.6c0,0.1,0,0.2-0.1,0.2
		c0,0-0.1,0-0.1-0.1c0,0,0,0,0,0c0-0.1,0-0.2,0-0.3c0-0.2-0.2-0.3-0.5-0.4c-0.2,0-1.1,0-1.4,0c0,0-0.1,0-0.1,0.1v0.8
		c0,0.3,0,1.2,0,1.5c0,0.7,0.2,0.8,1.2,0.8c0.3,0,0.6,0,0.9-0.1c0.2-0.1,0.4-0.3,0.4-0.7c0-0.1,0-0.1,0.1-0.1c0.1,0,0.1,0.1,0.1,0.2
		c0,0.4-0.1,0.7-0.1,1.1c-0.1,0.2-0.2,0.2-0.5,0.2c-0.7,0-1.2,0-1.7,0s-0.7,0-1,0c-0.1,0-0.3,0-0.5,0c-0.2,0-0.5,0-0.7,0
		c-0.1,0-0.2,0-0.2-0.1c0,0,0-0.1,0.2-0.1c0.1,0,0.2,0,0.3,0c0.2,0,0.2-0.2,0.3-0.5c0-0.4,0-1.1,0-2L-12323.5,2725.4z"/>
	<path id="Path_1904" class="st0" d="M-12316.2,2728.6c0,0.7,0.1,1,0.3,1.1c0.2,0,0.3,0.1,0.5,0.1c0.1,0,0.2,0,0.2,0.1
		c0,0.1-0.1,0.1-0.2,0.1c-0.6,0-1,0-1.2,0c-0.1,0-0.5,0-1,0c-0.1,0-0.2,0-0.2-0.1c0-0.1,0.1-0.1,0.2-0.1c0.1,0,0.3,0,0.4,0
		c0.2-0.1,0.3-0.4,0.3-1.2l0.1-5.6c0-0.2,0-0.3,0.1-0.3c0.1,0,0.2,0.1,0.4,0.3c0.1,0.1,1.6,1.7,3,3c0.7,0.6,1.9,2,2.1,2.2h0
		l-0.1-4.3c0-0.6-0.1-0.8-0.3-0.9c-0.2,0-0.3-0.1-0.5-0.1c-0.1,0-0.2,0-0.2-0.1c0-0.1,0.1-0.1,0.2-0.1c0.5,0,1,0,1.2,0
		c0.1,0,0.5,0,0.9,0c0.1,0,0.2,0,0.2,0.1c0,0.1-0.1,0.1-0.2,0.1c-0.1,0-0.2,0-0.3,0c-0.3,0.1-0.3,0.3-0.4,0.8l-0.1,6
		c0,0.2,0,0.3-0.1,0.3c-0.1,0-0.2-0.1-0.3-0.2c-0.6-0.6-1.8-1.8-2.8-2.8c-1-1-2.1-2.2-2.3-2.4h0L-12316.2,2728.6z"/>
	<path id="Path_1905" class="st0" d="M-12307,2729c-1.5-1.4-1.6-3.8-0.2-5.3c0,0,0.1-0.1,0.1-0.1c0.8-0.7,1.9-1.1,3-1
		c0.5,0,0.9,0,1.4,0.1c0.4,0,0.7,0.1,1,0.2c0.1,0,0.1,0.1,0.1,0.1c0,0.1,0,0.2,0,0.5c0,0.3,0,0.8,0,1c0,0.1,0,0.2-0.1,0.2
		c-0.1,0-0.1-0.1-0.1-0.2c0-0.3-0.1-0.6-0.4-0.9c-0.6-0.4-1.2-0.6-1.9-0.6c-0.7,0-1.3,0.2-1.8,0.6c-0.6,0.7-1,1.6-0.9,2.5
		c-0.1,1.8,1.3,3.3,3,3.4l0,0c0.6,0.1,1.3-0.1,1.8-0.5c0.2-0.2,0.3-0.4,0.3-0.6c0-0.2,0-0.2,0.1-0.2c0.1,0,0.1,0.1,0.1,0.1
		c0,0.4-0.1,0.8-0.2,1.3c0,0.1-0.1,0.2-0.2,0.3c-0.6,0.2-1.1,0.2-1.7,0.2C-12304.9,2730.1-12306.1,2729.7-12307,2729z"/>
	<path id="Path_1906" class="st0" d="M-12298.7,2725.4c0-1.4,0-1.7,0-2c0-0.3-0.1-0.5-0.4-0.5c-0.1,0-0.2,0-0.4,0
		c-0.1,0-0.2,0-0.2-0.1c0-0.1,0.1-0.1,0.2-0.1c0.3,0,0.5,0,0.8,0s0.5,0,0.6,0c0.3,0,2.2,0,2.4,0c0.1,0,0.3,0,0.4-0.1
		c0,0,0.1,0,0.2,0c0,0,0.1,0,0.1,0.1c0,0.1,0,0.2-0.1,0.6c0,0.1,0,0.5,0,0.6c0,0,0,0.1-0.1,0.1c-0.1,0-0.1,0-0.1-0.1
		c0-0.1,0-0.2-0.1-0.3c-0.1-0.2-0.2-0.3-0.6-0.3c-0.2,0-1.2,0-1.4,0c0,0-0.1,0-0.1,0.1v2.4c0,0.1,0,0.1,0.1,0.1c0.2,0,1.3,0,1.5,0
		c0.2,0,0.3,0,0.5-0.1c0.1-0.1,0.1-0.1,0.2-0.1c0,0,0.1,0,0.1,0.1s0,0.2-0.1,0.7c0,0.2,0,0.6,0,0.6c0,0.1,0,0.2-0.1,0.2
		c0,0-0.1,0-0.1-0.1c0,0,0,0,0,0c0-0.1,0-0.2,0-0.3c0-0.2-0.2-0.3-0.5-0.4c-0.2,0-1.1,0-1.4,0c0,0-0.1,0-0.1,0.1v0.8
		c0,0.3,0,1.2,0,1.5c0,0.7,0.2,0.8,1.2,0.8c0.3,0,0.6,0,0.9-0.1c0.2-0.1,0.4-0.3,0.4-0.7c0-0.1,0-0.1,0.1-0.1c0.1,0,0.1,0.1,0.1,0.2
		c0,0.4-0.1,0.7-0.1,1.1c-0.1,0.2-0.2,0.2-0.5,0.2c-0.7,0-1.2,0-1.7,0s-0.7,0-1,0c-0.1,0-0.3,0-0.5,0c-0.2,0-0.5,0-0.7,0
		c-0.1,0-0.2,0-0.2-0.1c0,0,0-0.1,0.2-0.1c0.1,0,0.2,0,0.3,0c0.2,0,0.2-0.2,0.3-0.5c0-0.4,0-1.1,0-2L-12298.7,2725.4z"/>
	<path id="Path_1907" class="st0" d="M-12287.5,2725.6c-0.3-0.4-0.5-0.9-0.5-1.3c0-0.8,0.7-1.7,2.3-1.7c0.4,0,0.8,0.1,1.2,0.2
		c0.2,0.1,0.2,0.1,0.2,0.2c0,0.4,0,0.8-0.1,1.2c0,0.1-0.1,0.2-0.1,0.2c-0.1,0-0.1,0-0.1-0.2c0-0.3-0.1-0.6-0.3-0.8
		c-0.3-0.3-0.7-0.5-1.1-0.4c-0.6,0-1,0.4-1,1c0,0,0,0,0,0.1c0,0.9,0.8,1.7,1.6,2.5c0.3,0.4,1.5,1.4,1.7,1.6c0.3-0.4,0.4-0.9,0.5-1.5
		c0-0.2-0.1-0.3-0.2-0.4c-0.1-0.1-0.3-0.2-0.5-0.1c-0.1,0-0.1,0-0.1-0.1c0-0.1,0.1-0.1,0.2-0.1c0.4,0,0.8,0,1.2,0.1
		c0.2,0,0.3,0.1,0.3,0.2c-0.1,0.8-0.4,1.6-0.9,2.3c0.4,0.3,0.9,0.7,1.3,0.9c0.3,0.2,0.7,0.3,1,0.3c0.1,0,0.1,0,0.1,0.1
		c0,0.1-0.1,0.1-0.3,0.1h-0.7c-0.8,0.1-1.6-0.2-2.3-0.7c-0.6,0.6-1.4,0.9-2.3,0.9c-2.1,0-2.7-1.3-2.7-2.1
		C-12289,2726.9-12288.4,2726.1-12287.5,2725.6z M-12284.5,2728.8c-0.6-0.5-1.5-1.4-1.7-1.6c-0.2-0.3-0.9-0.9-1-1.2
		c-0.4,0.3-0.7,0.9-0.7,1.4c-0.1,1,0.7,1.9,1.7,1.9c0,0,0.1,0,0.1,0C-12285.5,2729.4-12285,2729.2-12284.5,2728.8L-12284.5,2728.8z"
		/>
	<path id="Path_1908" class="st0" d="M-12274.4,2727.1c0,1.2,0,1.9,0.2,2c0.2,0.1,0.4,0.2,1.2,0.2c0.5,0,0.9,0,1.1-0.3
		c0.1-0.2,0.2-0.4,0.2-0.6c0-0.1,0-0.1,0.1-0.1c0.1,0,0.1,0,0.1,0.2c0,0.4-0.1,0.7-0.1,1.1c-0.1,0.2-0.1,0.3-0.6,0.3
		c-0.7,0-1.2,0-1.6,0c-0.4,0-0.8,0-1.2,0c-0.1,0-0.3,0-0.5,0c-0.2,0-0.5,0-0.7,0c-0.1,0-0.2,0-0.2-0.1c0,0,0-0.1,0.2-0.1
		c0.1,0,0.2,0,0.3,0c0.2,0,0.2-0.2,0.3-0.5c0-0.4,0-1.1,0-2v-1.7c0-1.4,0-1.7,0-2c0-0.3-0.1-0.5-0.4-0.5c-0.1,0-0.2,0-0.3,0
		c-0.1,0-0.2,0-0.2-0.1c0-0.1,0.1-0.1,0.2-0.1c0.5,0,1.1,0,1.3,0c0.2,0,0.9,0,1.3,0c0.1,0,0.2,0,0.2,0.1c0,0.1-0.1,0.1-0.2,0.1
		c-0.1,0-0.2,0-0.4,0c-0.3,0-0.3,0.2-0.4,0.5c0,0.3,0,0.6,0,2V2727.1z"/>
	<path id="Path_1909" class="st0" d="M-12269,2725.4c0-1.4,0-1.7,0-2c0-0.3-0.1-0.5-0.4-0.5c-0.1,0-0.2,0-0.4,0
		c-0.1,0-0.2,0-0.2-0.1c0-0.1,0.1-0.1,0.2-0.1c0.3,0,0.5,0,0.8,0c0.2,0,0.5,0,0.6,0c0.3,0,2.2,0,2.4,0c0.1,0,0.3,0,0.4-0.1
		c0,0,0.1,0,0.2,0c0,0,0.1,0,0.1,0.1c0,0.1,0,0.2-0.1,0.6c0,0.1,0,0.5,0,0.6c0,0,0,0.1-0.1,0.1s-0.1,0-0.1-0.1c0-0.1,0-0.2-0.1-0.3
		c-0.1-0.2-0.2-0.3-0.6-0.3c-0.2,0-1.2,0-1.4,0c0,0-0.1,0-0.1,0.1v2.4c0,0.1,0,0.1,0.1,0.1c0.2,0,1.3,0,1.5,0c0.2,0,0.3,0,0.5-0.1
		c0.1-0.1,0.1-0.1,0.2-0.1s0.1,0,0.1,0.1s0,0.2-0.1,0.7c0,0.2,0,0.6,0,0.6c0,0.1,0,0.2-0.1,0.2c0,0-0.1,0-0.1-0.1c0,0,0,0,0,0
		c0-0.1,0-0.2,0-0.3c0-0.2-0.2-0.3-0.5-0.4c-0.2,0-1.1,0-1.4,0c0,0-0.1,0-0.1,0.1v0.8c0,0.3,0,1.2,0,1.5c0,0.7,0.2,0.8,1.2,0.8
		c0.3,0,0.6,0,0.9-0.1c0.2-0.1,0.4-0.3,0.4-0.7c0-0.1,0-0.1,0.1-0.1c0.1,0,0.1,0.1,0.1,0.2c0,0.4-0.1,0.7-0.1,1.1
		c-0.1,0.2-0.2,0.2-0.5,0.2c-0.7,0-1.2,0-1.7,0s-0.7,0-1,0c-0.1,0-0.3,0-0.5,0c-0.2,0-0.5,0-0.7,0c-0.1,0-0.2,0-0.2-0.1
		c0,0,0-0.1,0.2-0.1c0.1,0,0.2,0,0.3,0c0.2,0,0.2-0.2,0.3-0.5c0-0.4,0-1.1,0-2L-12269,2725.4z"/>
	<path id="Path_1910" class="st0" d="M-12261.2,2727.4C-12261.3,2727.4-12261.3,2727.4-12261.2,2727.4l-0.6,1.4
		c-0.1,0.2-0.1,0.4-0.1,0.6c0,0.2,0.1,0.3,0.4,0.3h0.1c0.1,0,0.1,0,0.1,0.1c0,0.1-0.1,0.1-0.2,0.1c-0.3,0-0.7,0-1,0
		c-0.1,0-0.6,0-1.1,0c-0.1,0-0.2,0-0.2-0.1c0-0.1,0-0.1,0.1-0.1c0.1,0,0.2,0,0.3,0c0.4-0.1,0.6-0.4,0.8-0.9l2.4-6
		c0.1-0.3,0.2-0.4,0.3-0.4c0.1,0,0.1,0.1,0.2,0.3c0.2,0.5,1.8,4.4,2.4,5.8c0.4,0.9,0.6,1,0.8,1c0.1,0,0.3,0,0.4,0
		c0.1,0,0.1,0,0.1,0.1s-0.1,0.1-0.4,0.1c-0.4,0-1,0-1.8,0c-0.2,0-0.3,0-0.3-0.1c0-0.1,0-0.1,0.1-0.1c0.1,0,0.1-0.1,0.1-0.2
		c0,0,0,0,0,0l-0.8-2c0,0-0.1-0.1-0.1-0.1H-12261.2z M-12259.3,2726.9C-12259.2,2726.9-12259.2,2726.9-12259.3,2726.9l-0.8-2.4
		c0,0,0-0.1,0-0.1c0,0,0,0-0.1,0.1l-0.9,2.3c0,0,0,0.1,0,0.1H-12259.3z"/>
	<path id="Path_1911" class="st0" d="M-12253.7,2725.4c0-1.4,0-1.7,0-2c0-0.3-0.1-0.5-0.4-0.5c-0.1,0-0.2,0-0.4,0
		c-0.1,0-0.2,0-0.2-0.1c0-0.1,0.1-0.1,0.2-0.1c0.5,0,1.1,0,1.4,0c0.3,0,0.9,0,1.5,0c1.2,0,2.8,0,3.8,1.1c0.6,0.6,1,1.5,0.9,2.4
		c0,1-0.4,1.9-1,2.6c-0.9,0.8-2,1.2-3.2,1.1c-0.3,0-0.7,0-1.1-0.1c-0.4,0-0.7-0.1-0.9-0.1c-0.1,0-0.3,0-0.5,0c-0.2,0-0.5,0-0.7,0
		c-0.1,0-0.2,0-0.2-0.1c0,0,0-0.1,0.2-0.1c0.1,0,0.2,0,0.3,0c0.2,0,0.2-0.2,0.3-0.5c0-0.4,0-1.1,0-2L-12253.7,2725.4z
		 M-12252.5,2726.5c0,1,0,1.7,0,1.9c0,0.2,0,0.5,0.1,0.7c0.1,0.2,0.5,0.4,1.3,0.4c0.8,0.1,1.6-0.2,2.2-0.7c0.6-0.6,0.9-1.5,0.8-2.4
		c0-0.9-0.3-1.7-0.9-2.4c-0.7-0.7-1.7-1-2.7-0.9c-0.2,0-0.4,0-0.6,0.1c-0.1,0-0.1,0.1-0.1,0.2c0,0.3,0,1.2,0,1.9V2726.5z"/>
	<path id="Path_1912" class="st0" d="M-12244.3,2725.4c0-1.4,0-1.7,0-2c0-0.3-0.1-0.5-0.4-0.5c-0.1,0-0.2,0-0.4,0
		c-0.1,0-0.2,0-0.2-0.1c0-0.1,0.1-0.1,0.2-0.1c0.3,0,0.5,0,0.8,0s0.5,0,0.6,0c0.3,0,2.2,0,2.4,0c0.1,0,0.3,0,0.4-0.1
		c0,0,0.1,0,0.2,0c0,0,0.1,0,0.1,0.1c0,0.2-0.1,0.4-0.1,0.6c0,0.1,0,0.5,0,0.6c0,0,0,0.1-0.1,0.1c-0.1,0-0.1,0-0.1-0.1
		c0-0.1,0-0.2-0.1-0.3c-0.1-0.2-0.2-0.3-0.6-0.3c-0.2,0-1.2,0-1.4,0c0,0-0.1,0-0.1,0.1v2.4c0,0.1,0,0.1,0.1,0.1c0.2,0,1.3,0,1.5,0
		c0.2,0,0.3,0,0.5-0.1c0.1-0.1,0.1-0.1,0.2-0.1c0,0,0.1,0,0.1,0.1s0,0.2-0.1,0.7c0,0.2,0,0.6,0,0.6c0,0.1,0,0.2-0.1,0.2
		c0,0-0.1,0-0.1-0.1c0,0,0,0,0,0c0-0.1,0-0.2,0-0.3c0-0.2-0.2-0.3-0.5-0.4c-0.2,0-1.1,0-1.4,0c0,0-0.1,0-0.1,0.1v0.8
		c0,0.3,0,1.2,0,1.5c0,0.7,0.2,0.8,1.2,0.8c0.3,0,0.6,0,0.9-0.1c0.2-0.1,0.4-0.3,0.4-0.7c0-0.1,0-0.1,0.1-0.1c0.1,0,0.1,0.1,0.1,0.2
		c0,0.4-0.1,0.7-0.1,1.1c-0.1,0.2-0.2,0.2-0.5,0.2c-0.7,0-1.2,0-1.7,0s-0.7,0-1,0c-0.1,0-0.3,0-0.5,0s-0.5,0-0.7,0
		c-0.1,0-0.2,0-0.2-0.1c0,0,0-0.1,0.2-0.1c0.1,0,0.2,0,0.3,0c0.2,0,0.2-0.2,0.3-0.5c0-0.4,0-1.1,0-2L-12244.3,2725.4z"/>
	<path id="Path_1913" class="st0" d="M-12237.6,2725.4c0-1.4,0-1.7,0-2c0-0.3-0.1-0.5-0.4-0.5c-0.1,0-0.2,0-0.4,0
		c-0.1,0-0.2,0-0.2-0.1c0-0.1,0.1-0.1,0.2-0.1c0.5,0,1.1,0,1.3,0c0.3,0,1.1,0,1.4,0c0.6,0,1.2,0.1,1.8,0.4c0.4,0.3,0.6,0.8,0.7,1.3
		c0,0.9-0.5,1.7-1.3,2.1c0.9,1.1,1.5,1.9,2.1,2.5c0.3,0.3,0.7,0.6,1.1,0.6c0.1,0,0.2,0,0.3,0c0.1,0,0.1,0,0.1,0.1
		c0,0.1-0.1,0.1-0.2,0.1h-0.9c-0.4,0-0.7,0-1-0.2c-0.5-0.4-1-0.8-1.3-1.4c-0.4-0.5-0.8-1.2-0.9-1.3c0,0-0.1-0.1-0.2-0.1l-0.8,0
		c0,0-0.1,0-0.1,0.1v0.1c0,0.9,0,1.6,0,2c0,0.3,0.1,0.5,0.4,0.5c0.1,0,0.4,0,0.5,0c0.1,0,0.1,0,0.1,0.1c0,0.1-0.1,0.1-0.2,0.1
		c-0.6,0-1.3,0-1.4,0c-0.2,0-0.8,0-1.2,0c-0.1,0-0.2,0-0.2-0.1c0,0,0-0.1,0.2-0.1c0.1,0,0.2,0,0.3,0c0.2,0,0.2-0.2,0.3-0.5
		c0-0.4,0-1.1,0-2L-12237.6,2725.4z M-12236.5,2726.2c0,0.1,0,0.1,0.1,0.2c0.2,0.1,0.5,0.1,0.7,0.1c0.2,0,0.5,0,0.7-0.2
		c0.4-0.4,0.6-0.9,0.6-1.4c0.1-0.8-0.5-1.6-1.3-1.7c-0.1,0-0.1,0-0.2,0c-0.2,0-0.3,0-0.5,0c-0.1,0-0.1,0.1-0.1,0.1V2726.2z"/>
	<path id="Path_1914" class="st0" d="M-12229.5,2729.7c-0.2-0.1-0.2-0.1-0.2-0.3c0-0.5,0-1.1,0-1.2c0-0.2,0-0.2,0.1-0.2
		s0.1,0.1,0.1,0.2c0,0.2,0,0.3,0.1,0.5c0.2,0.6,0.7,1,1.4,1c0.6,0.1,1.2-0.4,1.3-1c0,0,0,0,0-0.1c0-0.5-0.1-0.9-0.9-1.5l-0.4-0.3
		c-1.1-0.8-1.4-1.5-1.4-2.3c0-1,0.9-1.8,2.2-1.8c0.4,0,0.9,0,1.3,0.2c0.1,0,0.1,0,0.1,0.1c0,0.1,0,0.4,0,1.1c0,0.2,0,0.3-0.1,0.3
		c-0.1,0-0.1-0.1-0.1-0.2c0-0.2-0.1-0.4-0.2-0.6c-0.2-0.3-0.6-0.5-1-0.5c-0.5-0.1-1.1,0.3-1.1,0.8c0,0,0,0.1,0,0.1
		c0,0.4,0.2,0.8,1,1.4l0.3,0.2c1.2,0.9,1.6,1.5,1.6,2.4c0,0.7-0.3,1.3-0.9,1.7c-0.5,0.3-1,0.4-1.5,0.4
		C-12228.6,2730-12229.1,2729.9-12229.5,2729.7z"/>
	<path id="Path_1915" class="st0" d="M-12217.9,2725.7C-12217.9,2725.7-12217.9,2725.7-12217.9,2725.7l0.1-0.3c0-1.4,0-1.7,0-2
		c0-0.3-0.1-0.5-0.4-0.5c-0.1,0-0.2,0-0.4,0c-0.1,0-0.2,0-0.2-0.1c0-0.1,0.1-0.1,0.2-0.1c0.5,0,1.1,0,1.4,0c0.2,0,0.8,0,1.2,0
		c0.1,0,0.2,0,0.2,0.1c0,0.1-0.1,0.1-0.2,0.1c-0.1,0-0.2,0-0.3,0c-0.3,0-0.3,0.2-0.4,0.5c0,0.3,0,0.6,0,2v1.7c0,0.9,0,1.6,0,2
		c0,0.3,0.1,0.5,0.4,0.5c0.2,0,0.3,0,0.5,0c0.1,0,0.2,0,0.2,0.1c0,0.1-0.1,0.1-0.2,0.1c-0.6,0-1.2,0-1.5,0c-0.2,0-0.8,0-1.2,0
		c-0.1,0-0.2,0-0.2-0.1c0,0,0-0.1,0.2-0.1c0.1,0,0.2,0,0.3,0c0.2,0,0.2-0.2,0.3-0.5c0-0.4,0-1.1,0-2v-0.8c0,0,0-0.1-0.1-0.1
		c0,0,0,0,0,0h-3.7c0,0-0.1,0-0.1,0.1v0.8c0,0.9,0,1.6,0,2c0,0.3,0.1,0.5,0.4,0.5c0.2,0,0.3,0,0.5,0c0.1,0,0.2,0,0.2,0.1
		c0,0.1-0.1,0.1-0.2,0.1c-0.6,0-1.2,0-1.5,0c-0.2,0-0.8,0-1.2,0c-0.1,0-0.2,0-0.2-0.1c0,0,0-0.1,0.2-0.1c0.1,0,0.2,0,0.3,0
		c0.2,0,0.2-0.2,0.3-0.5c0-0.4,0-1.1,0-2v-1.7c0-1.4,0-1.7,0-2c0-0.3-0.1-0.5-0.4-0.5c-0.1,0-0.2,0-0.4,0c-0.1,0-0.2,0-0.2-0.1
		c0-0.1,0.1-0.1,0.2-0.1c0.5,0,1.1,0,1.4,0c0.2,0,0.8,0,1.2,0c0.1,0,0.2,0,0.2,0.1c0,0.1-0.1,0.1-0.2,0.1c-0.1,0-0.2,0-0.3,0
		c-0.3,0-0.3,0.2-0.4,0.5c0,0.3,0,0.6,0,2v0.2c0,0,0,0.1,0.1,0.1L-12217.9,2725.7z"/>
	<path id="Path_1916" class="st0" d="M-12212.8,2725.4c0-1.4,0-1.7,0-2c0-0.3-0.1-0.5-0.3-0.5c-0.1,0-0.2,0-0.3,0
		c-0.1,0-0.2,0-0.2-0.1c0-0.1,0.1-0.1,0.2-0.1c0.4,0,1,0,1.2,0c0.2,0,0.8,0,1.2,0c0.1,0,0.2,0,0.2,0.1c0,0.1-0.1,0.1-0.2,0.1
		c-0.1,0-0.2,0-0.3,0c-0.3,0-0.3,0.2-0.4,0.5c0,0.3,0,0.6,0,2v1.7c0,0.9,0,1.7,0,2.1c0,0.3,0.1,0.4,0.4,0.5c0.2,0,0.3,0,0.5,0
		c0.1,0,0.2,0,0.2,0.1c0,0.1-0.1,0.1-0.2,0.1c-0.6,0-1.2,0-1.5,0c-0.2,0-0.8,0-1.2,0c-0.1,0-0.2,0-0.2-0.1c0,0,0-0.1,0.2-0.1
		c0.1,0,0.2,0,0.3,0c0.2,0,0.2-0.2,0.3-0.5c0-0.4,0-1.1,0-2.1L-12212.8,2725.4z"/>
	<path id="Path_1917" class="st0" d="M-12207.8,2725.4c0-1.4,0-1.7,0-2c0-0.3-0.1-0.5-0.4-0.5c-0.1,0-0.2,0-0.4,0
		c-0.1,0-0.2,0-0.2-0.1c0-0.1,0.1-0.1,0.2-0.1c0.5,0,1.1,0,1.4,0c0.4,0,1,0,1.4,0c0.6-0.1,1.3,0.1,1.8,0.5c0.3,0.3,0.5,0.7,0.5,1.1
		c0,1.2-0.9,2.3-2.2,2.3c-0.1,0-0.1,0-0.2,0c-0.1,0-0.1,0-0.2,0c0,0-0.1,0-0.1-0.1c0-0.1,0.1-0.1,0.3-0.1c0.8-0.1,1.3-0.8,1.3-1.6
		c0-0.5-0.2-1.1-0.6-1.4c-0.3-0.2-0.6-0.4-1-0.4c-0.1,0-0.3,0-0.4,0c0,0-0.1,0.1-0.1,0.2v3.8c0,0.9,0,1.6,0,2c0,0.3,0.1,0.5,0.4,0.5
		c0.2,0,0.3,0,0.5,0c0.1,0,0.2,0,0.2,0.1c0,0.1-0.1,0.1-0.2,0.1c-0.6,0-1.2,0-1.5,0c-0.2,0-0.8,0-1.2,0c-0.1,0-0.2,0-0.2-0.1
		c0,0,0-0.1,0.2-0.1c0.1,0,0.2,0,0.3,0c0.2,0,0.2-0.2,0.3-0.5c0-0.4,0-1.1,0-2L-12207.8,2725.4z"/>
</g>
</svg>
